<mxfile host="Electron" modified="2024-02-07T08:55:33.155Z" agent="Mozilla/5.0 (Windows NT 10.0; Win64; x64) AppleWebKit/537.36 (KHTML, like Gecko) draw.io/23.0.2 Chrome/120.0.6099.109 Electron/28.1.0 Safari/537.36" etag="WS2XvESJz_Cl8m8hKvbK" version="23.0.2" type="device">
  <diagram name="Page-1" id="2YBvvXClWsGukQMizWep">
    <mxGraphModel dx="5293" dy="3407" grid="1" gridSize="10" guides="1" tooltips="1" connect="1" arrows="1" fold="1" page="1" pageScale="1" pageWidth="3300" pageHeight="4681" math="0" shadow="0">
      <root>
        <mxCell id="0" />
        <mxCell id="1" parent="0" />
        <mxCell id="_ZaJwgLXyBjZyZR1cbs3-16" value=":Infrastructure" style="shape=umlLifeline;perimeter=lifelinePerimeter;whiteSpace=wrap;html=1;container=1;dropTarget=0;collapsible=0;recursiveResize=0;outlineConnect=0;portConstraint=eastwest;newEdgeStyle={&quot;curved&quot;:0,&quot;rounded&quot;:0};" parent="1" vertex="1">
          <mxGeometry x="2115" y="1264" width="100" height="480" as="geometry" />
        </mxCell>
        <mxCell id="_ZaJwgLXyBjZyZR1cbs3-20" value="" style="html=1;points=[[0,0,0,0,5],[0,1,0,0,-5],[1,0,0,0,5],[1,1,0,0,-5]];perimeter=orthogonalPerimeter;outlineConnect=0;targetShapes=umlLifeline;portConstraint=eastwest;newEdgeStyle={&quot;curved&quot;:0,&quot;rounded&quot;:0};" parent="_ZaJwgLXyBjZyZR1cbs3-16" vertex="1">
          <mxGeometry x="45" y="160" width="10" height="70" as="geometry" />
        </mxCell>
        <mxCell id="B_4Xbb5loBpYio-yjXhm-6" value=":Controller" style="shape=umlLifeline;perimeter=lifelinePerimeter;whiteSpace=wrap;html=1;container=1;dropTarget=0;collapsible=0;recursiveResize=0;outlineConnect=0;portConstraint=eastwest;newEdgeStyle={&quot;curved&quot;:0,&quot;rounded&quot;:0};" parent="1" vertex="1">
          <mxGeometry x="390.35" y="1880" width="100" height="1535" as="geometry" />
        </mxCell>
        <mxCell id="B_4Xbb5loBpYio-yjXhm-7" value=":Domain" style="shape=umlLifeline;perimeter=lifelinePerimeter;whiteSpace=wrap;html=1;container=1;dropTarget=0;collapsible=0;recursiveResize=0;outlineConnect=0;portConstraint=eastwest;newEdgeStyle={&quot;curved&quot;:0,&quot;rounded&quot;:0};" parent="1" vertex="1">
          <mxGeometry x="630.35" y="1880" width="100" height="1535" as="geometry" />
        </mxCell>
        <mxCell id="B_4Xbb5loBpYio-yjXhm-12" value="MongoDB" style="shape=umlLifeline;perimeter=lifelinePerimeter;whiteSpace=wrap;html=1;container=1;dropTarget=0;collapsible=0;recursiveResize=0;outlineConnect=0;portConstraint=eastwest;newEdgeStyle={&quot;curved&quot;:0,&quot;rounded&quot;:0};" parent="1" vertex="1">
          <mxGeometry x="1707" y="1880" width="100" height="1535" as="geometry" />
        </mxCell>
        <mxCell id="RHDwDdP0duc58COCyPNJ-247" value="" style="html=1;points=[[0,0,0,0,5],[0,1,0,0,-5],[1,0,0,0,5],[1,1,0,0,-5]];perimeter=orthogonalPerimeter;outlineConnect=0;targetShapes=umlLifeline;portConstraint=eastwest;newEdgeStyle={&quot;curved&quot;:0,&quot;rounded&quot;:0};fillColor=#dae8fc;strokeColor=#6c8ebf;" parent="B_4Xbb5loBpYio-yjXhm-12" vertex="1">
          <mxGeometry x="45" y="606.5" width="10" height="67" as="geometry" />
        </mxCell>
        <mxCell id="RHDwDdP0duc58COCyPNJ-303" value="" style="html=1;points=[[0,0,0,0,5],[0,1,0,0,-5],[1,0,0,0,5],[1,1,0,0,-5]];perimeter=orthogonalPerimeter;outlineConnect=0;targetShapes=umlLifeline;portConstraint=eastwest;newEdgeStyle={&quot;curved&quot;:0,&quot;rounded&quot;:0};fillColor=#dae8fc;strokeColor=#6c8ebf;" parent="B_4Xbb5loBpYio-yjXhm-12" vertex="1">
          <mxGeometry x="45" y="1164" width="10" height="46" as="geometry" />
        </mxCell>
        <mxCell id="RHDwDdP0duc58COCyPNJ-248" value="" style="html=1;points=[[0,0,0,0,5],[0,1,0,0,-5],[1,0,0,0,5],[1,1,0,0,-5]];perimeter=orthogonalPerimeter;outlineConnect=0;targetShapes=umlLifeline;portConstraint=eastwest;newEdgeStyle={&quot;curved&quot;:0,&quot;rounded&quot;:0};fillColor=#dae8fc;strokeColor=#6c8ebf;" parent="B_4Xbb5loBpYio-yjXhm-12" vertex="1">
          <mxGeometry x="45" y="1043.5" width="10" height="35" as="geometry" />
        </mxCell>
        <mxCell id="RHDwDdP0duc58COCyPNJ-270" value="&lt;span style=&quot;color: rgb(0, 0, 0); font-family: Helvetica; font-size: 11px; font-style: normal; font-variant-ligatures: normal; font-variant-caps: normal; font-weight: 400; letter-spacing: normal; orphans: 2; text-align: center; text-indent: 0px; text-transform: none; widows: 2; word-spacing: 0px; -webkit-text-stroke-width: 0px; background-color: rgb(255, 255, 255); text-decoration-thickness: initial; text-decoration-style: initial; text-decoration-color: initial; float: none; display: inline !important;&quot;&gt;AddMultipleSteamItems(newItems)&lt;/span&gt;" style="edgeStyle=orthogonalEdgeStyle;rounded=0;orthogonalLoop=1;jettySize=auto;html=1;curved=0;endArrow=block;endFill=1;" parent="B_4Xbb5loBpYio-yjXhm-12" edge="1">
          <mxGeometry x="0.0807" y="9" relative="1" as="geometry">
            <mxPoint x="-464" y="1050" as="sourcePoint" />
            <mxPoint x="45" y="1050" as="targetPoint" />
            <Array as="points">
              <mxPoint x="36" y="1050" />
            </Array>
            <mxPoint as="offset" />
          </mxGeometry>
        </mxCell>
        <mxCell id="B_4Xbb5loBpYio-yjXhm-55" value="" style="shape=umlLifeline;perimeter=lifelinePerimeter;whiteSpace=wrap;html=1;container=1;dropTarget=0;collapsible=0;recursiveResize=0;outlineConnect=0;portConstraint=eastwest;newEdgeStyle={&quot;curved&quot;:0,&quot;rounded&quot;:0};participant=umlActor;rounded=0;glass=0;fillStyle=auto;strokeColor=default;align=center;verticalAlign=middle;spacingLeft=0;spacingTop=0;fontFamily=Helvetica;fontSize=12;fontColor=default;fillColor=default;" parent="1" vertex="1">
          <mxGeometry x="150" y="60" width="20" height="370" as="geometry" />
        </mxCell>
        <mxCell id="B_4Xbb5loBpYio-yjXhm-56" value="" style="html=1;points=[[0,0,0,0,5],[0,1,0,0,-5],[1,0,0,0,5],[1,1,0,0,-5]];perimeter=orthogonalPerimeter;outlineConnect=0;targetShapes=umlLifeline;portConstraint=eastwest;newEdgeStyle={&quot;curved&quot;:0,&quot;rounded&quot;:0};rounded=0;glass=0;fillStyle=auto;strokeColor=default;align=center;verticalAlign=middle;spacingLeft=0;spacingTop=0;fontFamily=Helvetica;fontSize=12;fontColor=default;fillColor=default;" parent="B_4Xbb5loBpYio-yjXhm-55" vertex="1">
          <mxGeometry x="5" y="60" width="10" height="240" as="geometry" />
        </mxCell>
        <mxCell id="B_4Xbb5loBpYio-yjXhm-59" value="ValidateUserID" style="html=1;align=left;spacingLeft=2;endArrow=block;rounded=0;edgeStyle=orthogonalEdgeStyle;curved=0;rounded=0;fontFamily=Helvetica;fontSize=12;fontColor=default;" parent="1" edge="1">
          <mxGeometry relative="1" as="geometry">
            <mxPoint x="449.9999999999998" y="137" as="sourcePoint" />
            <Array as="points">
              <mxPoint x="465" y="137" />
              <mxPoint x="465" y="157" />
            </Array>
            <mxPoint x="449.9999999999998" y="157" as="targetPoint" />
          </mxGeometry>
        </mxCell>
        <mxCell id="B_4Xbb5loBpYio-yjXhm-60" value=":Controller" style="shape=umlLifeline;perimeter=lifelinePerimeter;whiteSpace=wrap;html=1;container=1;dropTarget=0;collapsible=0;recursiveResize=0;outlineConnect=0;portConstraint=eastwest;newEdgeStyle={&quot;curved&quot;:0,&quot;rounded&quot;:0};rounded=0;glass=0;fillStyle=auto;strokeColor=default;align=center;verticalAlign=middle;spacingLeft=0;spacingTop=0;fontFamily=Helvetica;fontSize=12;fontColor=default;fillColor=default;" parent="1" vertex="1">
          <mxGeometry x="395" y="60" width="100" height="370" as="geometry" />
        </mxCell>
        <mxCell id="B_4Xbb5loBpYio-yjXhm-57" style="edgeStyle=orthogonalEdgeStyle;rounded=0;orthogonalLoop=1;jettySize=auto;html=1;curved=0;fontFamily=Helvetica;fontSize=12;fontColor=default;exitX=1;exitY=0;exitDx=0;exitDy=5;exitPerimeter=0;entryX=0;entryY=0;entryDx=0;entryDy=5;entryPerimeter=0;" parent="1" source="B_4Xbb5loBpYio-yjXhm-56" target="B_4Xbb5loBpYio-yjXhm-58" edge="1">
          <mxGeometry relative="1" as="geometry">
            <mxPoint x="320" y="124.93023255813955" as="targetPoint" />
            <mxPoint x="170" y="130" as="sourcePoint" />
          </mxGeometry>
        </mxCell>
        <mxCell id="B_4Xbb5loBpYio-yjXhm-61" value="GetUserInvetoryById(userSteamId)" style="edgeLabel;html=1;align=center;verticalAlign=middle;resizable=0;points=[];fontSize=12;fontFamily=Helvetica;fontColor=default;" parent="B_4Xbb5loBpYio-yjXhm-57" vertex="1" connectable="0">
          <mxGeometry x="-0.2297" y="2" relative="1" as="geometry">
            <mxPoint x="27" y="-7" as="offset" />
          </mxGeometry>
        </mxCell>
        <mxCell id="B_4Xbb5loBpYio-yjXhm-67" value="alt" style="shape=umlFrame;whiteSpace=wrap;html=1;pointerEvents=0;rounded=0;glass=0;fillStyle=auto;strokeColor=default;align=center;verticalAlign=middle;spacingLeft=0;spacingTop=0;fontFamily=Helvetica;fontSize=12;fontColor=default;fillColor=default;" parent="1" vertex="1">
          <mxGeometry x="80" y="190" width="470" height="120" as="geometry" />
        </mxCell>
        <mxCell id="B_4Xbb5loBpYio-yjXhm-70" value="" style="endArrow=none;dashed=1;html=1;dashPattern=1 3;strokeWidth=2;rounded=0;fontFamily=Helvetica;fontSize=12;fontColor=default;entryX=1.007;entryY=0.506;entryDx=0;entryDy=0;entryPerimeter=0;exitX=-0.005;exitY=0.511;exitDx=0;exitDy=0;exitPerimeter=0;" parent="1" source="B_4Xbb5loBpYio-yjXhm-67" target="B_4Xbb5loBpYio-yjXhm-67" edge="1">
          <mxGeometry width="50" height="50" relative="1" as="geometry">
            <mxPoint x="460" y="400" as="sourcePoint" />
            <mxPoint x="640" y="310" as="targetPoint" />
          </mxGeometry>
        </mxCell>
        <mxCell id="B_4Xbb5loBpYio-yjXhm-73" style="edgeStyle=orthogonalEdgeStyle;rounded=0;orthogonalLoop=1;jettySize=auto;html=1;curved=0;fontFamily=Helvetica;fontSize=12;fontColor=default;dashed=1;dashPattern=8 8;" parent="1" source="B_4Xbb5loBpYio-yjXhm-58" edge="1">
          <mxGeometry relative="1" as="geometry">
            <mxPoint x="162.72413793103442" y="239.37931034482756" as="targetPoint" />
          </mxGeometry>
        </mxCell>
        <mxCell id="B_4Xbb5loBpYio-yjXhm-74" value="BadRequest(IdNotValid)" style="edgeLabel;html=1;align=center;verticalAlign=middle;resizable=0;points=[];fontSize=12;fontFamily=Helvetica;fontColor=default;" parent="B_4Xbb5loBpYio-yjXhm-73" vertex="1" connectable="0">
          <mxGeometry x="0.1063" y="-1" relative="1" as="geometry">
            <mxPoint x="13" y="-9" as="offset" />
          </mxGeometry>
        </mxCell>
        <mxCell id="B_4Xbb5loBpYio-yjXhm-58" value="" style="html=1;points=[[0,0,0,0,5],[0,1,0,0,-5],[1,0,0,0,5],[1,1,0,0,-5]];perimeter=orthogonalPerimeter;outlineConnect=0;targetShapes=umlLifeline;portConstraint=eastwest;newEdgeStyle={&quot;curved&quot;:0,&quot;rounded&quot;:0};rounded=0;glass=0;fillStyle=auto;strokeColor=default;align=center;verticalAlign=middle;spacingLeft=0;spacingTop=0;fontFamily=Helvetica;fontSize=12;fontColor=default;fillColor=default;" parent="1" vertex="1">
          <mxGeometry x="440" y="120" width="10" height="240" as="geometry" />
        </mxCell>
        <mxCell id="B_4Xbb5loBpYio-yjXhm-71" value="[Id = notValid]" style="text;html=1;strokeColor=none;fillColor=none;align=center;verticalAlign=middle;whiteSpace=wrap;rounded=0;fontSize=12;fontFamily=Helvetica;fontColor=default;" parent="1" vertex="1">
          <mxGeometry x="350" y="187" width="90" height="30" as="geometry" />
        </mxCell>
        <mxCell id="B_4Xbb5loBpYio-yjXhm-75" value=":Domain" style="shape=umlLifeline;perimeter=lifelinePerimeter;whiteSpace=wrap;html=1;container=1;dropTarget=0;collapsible=0;recursiveResize=0;outlineConnect=0;portConstraint=eastwest;newEdgeStyle={&quot;curved&quot;:0,&quot;rounded&quot;:0};" parent="1" vertex="1">
          <mxGeometry x="630" y="60" width="100" height="370" as="geometry" />
        </mxCell>
        <mxCell id="B_4Xbb5loBpYio-yjXhm-76" value="" style="html=1;points=[[0,0,0,0,5],[0,0.5,0,0,0],[0,1,0,0,-5],[1,0,0,0,5],[1,0.29,0,0,0],[1,0.5,0,0,0],[1,0.72,0,0,0],[1,1,0,0,-5]];perimeter=orthogonalPerimeter;outlineConnect=0;targetShapes=umlLifeline;portConstraint=eastwest;newEdgeStyle={&quot;curved&quot;:0,&quot;rounded&quot;:0};rounded=0;glass=0;fillStyle=auto;strokeColor=default;align=center;verticalAlign=middle;spacingLeft=0;spacingTop=0;fontFamily=Helvetica;fontSize=12;fontColor=default;fillColor=default;" parent="B_4Xbb5loBpYio-yjXhm-75" vertex="1">
          <mxGeometry x="45" y="190" width="10" height="80" as="geometry" />
        </mxCell>
        <mxCell id="B_4Xbb5loBpYio-yjXhm-77" value="GetUserInventoryById(userId)" style="html=1;verticalAlign=bottom;endArrow=block;curved=0;rounded=0;fontFamily=Helvetica;fontSize=12;fontColor=default;" parent="1" target="B_4Xbb5loBpYio-yjXhm-75" edge="1">
          <mxGeometry width="80" relative="1" as="geometry">
            <mxPoint x="450" y="290" as="sourcePoint" />
            <mxPoint x="530" y="290" as="targetPoint" />
          </mxGeometry>
        </mxCell>
        <mxCell id="B_4Xbb5loBpYio-yjXhm-78" value="&lt;font style=&quot;font-size: 22px;&quot;&gt;&lt;b&gt;Validar ID&lt;/b&gt;&lt;/font&gt;" style="text;html=1;strokeColor=none;fillColor=none;align=center;verticalAlign=middle;whiteSpace=wrap;rounded=0;fontSize=12;fontFamily=Helvetica;fontColor=default;" parent="1" vertex="1">
          <mxGeometry x="10" y="10" width="200" height="30" as="geometry" />
        </mxCell>
        <mxCell id="B_4Xbb5loBpYio-yjXhm-79" value="[Id = Valid]" style="text;html=1;strokeColor=none;fillColor=none;align=center;verticalAlign=middle;whiteSpace=wrap;rounded=0;fontSize=12;fontFamily=Helvetica;fontColor=default;" parent="1" vertex="1">
          <mxGeometry x="350" y="250" width="90" height="30" as="geometry" />
        </mxCell>
        <mxCell id="B_4Xbb5loBpYio-yjXhm-80" value=":Domain" style="shape=umlLifeline;perimeter=lifelinePerimeter;whiteSpace=wrap;html=1;container=1;dropTarget=0;collapsible=0;recursiveResize=0;outlineConnect=0;portConstraint=eastwest;newEdgeStyle={&quot;curved&quot;:0,&quot;rounded&quot;:0};" parent="1" vertex="1">
          <mxGeometry x="952" y="60" width="100" height="200" as="geometry" />
        </mxCell>
        <mxCell id="B_4Xbb5loBpYio-yjXhm-86" value="" style="html=1;points=[[0,0,0,0,5],[0,1,0,0,-5],[1,0,0,0,5],[1,1,0,0,-5]];perimeter=orthogonalPerimeter;outlineConnect=0;targetShapes=umlLifeline;portConstraint=eastwest;newEdgeStyle={&quot;curved&quot;:0,&quot;rounded&quot;:0};rounded=0;glass=0;fillStyle=auto;strokeColor=default;align=center;verticalAlign=middle;spacingLeft=0;spacingTop=0;fontFamily=Helvetica;fontSize=12;fontColor=default;fillColor=default;" parent="B_4Xbb5loBpYio-yjXhm-80" vertex="1">
          <mxGeometry x="45" y="60" width="10" height="120" as="geometry" />
        </mxCell>
        <mxCell id="B_4Xbb5loBpYio-yjXhm-82" value=":Infrastructure" style="shape=umlLifeline;perimeter=lifelinePerimeter;whiteSpace=wrap;html=1;container=1;dropTarget=0;collapsible=0;recursiveResize=0;outlineConnect=0;portConstraint=eastwest;newEdgeStyle={&quot;curved&quot;:0,&quot;rounded&quot;:0};" parent="1" vertex="1">
          <mxGeometry x="1202" y="60" width="100" height="200" as="geometry" />
        </mxCell>
        <mxCell id="B_4Xbb5loBpYio-yjXhm-83" value="" style="shape=umlLifeline;perimeter=lifelinePerimeter;whiteSpace=wrap;html=1;container=1;dropTarget=0;collapsible=0;recursiveResize=0;outlineConnect=0;portConstraint=eastwest;newEdgeStyle={&quot;curved&quot;:0,&quot;rounded&quot;:0};participant=umlActor;" parent="1" vertex="1">
          <mxGeometry x="1492" y="60" width="20" height="200" as="geometry" />
        </mxCell>
        <mxCell id="B_4Xbb5loBpYio-yjXhm-98" value="" style="html=1;points=[[0,0,0,0,5],[0,1,0,0,-5],[1,0,0,0,5],[1,1,0,0,-5]];perimeter=orthogonalPerimeter;outlineConnect=0;targetShapes=umlLifeline;portConstraint=eastwest;newEdgeStyle={&quot;curved&quot;:0,&quot;rounded&quot;:0};rounded=0;glass=0;fillStyle=auto;strokeColor=default;align=center;verticalAlign=middle;spacingLeft=0;spacingTop=0;fontFamily=Helvetica;fontSize=12;fontColor=default;fillColor=default;" parent="B_4Xbb5loBpYio-yjXhm-83" vertex="1">
          <mxGeometry x="5" y="90" width="10" height="40" as="geometry" />
        </mxCell>
        <mxCell id="B_4Xbb5loBpYio-yjXhm-84" value="&lt;font style=&quot;font-size: 22px;&quot;&gt;&lt;b&gt;Obtener avatar y nombre de usuario&lt;/b&gt;&lt;/font&gt;" style="text;html=1;strokeColor=none;fillColor=none;align=center;verticalAlign=middle;whiteSpace=wrap;rounded=0;fontSize=12;fontFamily=Helvetica;fontColor=default;" parent="1" vertex="1">
          <mxGeometry x="952" y="10" width="410" height="30" as="geometry" />
        </mxCell>
        <mxCell id="B_4Xbb5loBpYio-yjXhm-85" value="Steam WebApi" style="text;html=1;strokeColor=none;fillColor=none;align=center;verticalAlign=middle;whiteSpace=wrap;rounded=0;fontSize=12;fontFamily=Helvetica;fontColor=default;" parent="1" vertex="1">
          <mxGeometry x="1460" y="38" width="90" height="30" as="geometry" />
        </mxCell>
        <mxCell id="B_4Xbb5loBpYio-yjXhm-87" value="" style="html=1;points=[[0,0,0,0,5],[0,1,0,0,-5],[1,0,0,0,5],[1,1,0,0,-5]];perimeter=orthogonalPerimeter;outlineConnect=0;targetShapes=umlLifeline;portConstraint=eastwest;newEdgeStyle={&quot;curved&quot;:0,&quot;rounded&quot;:0};rounded=0;glass=0;fillStyle=auto;strokeColor=default;align=center;verticalAlign=middle;spacingLeft=0;spacingTop=0;fontFamily=Helvetica;fontSize=12;fontColor=default;fillColor=default;" parent="1" vertex="1">
          <mxGeometry x="1247" y="120" width="10" height="120" as="geometry" />
        </mxCell>
        <mxCell id="B_4Xbb5loBpYio-yjXhm-88" style="edgeStyle=orthogonalEdgeStyle;rounded=0;orthogonalLoop=1;jettySize=auto;html=1;curved=0;exitX=1;exitY=0;exitDx=0;exitDy=5;exitPerimeter=0;entryX=0;entryY=0;entryDx=0;entryDy=5;entryPerimeter=0;fontFamily=Helvetica;fontSize=12;fontColor=default;" parent="1" edge="1">
          <mxGeometry relative="1" as="geometry">
            <mxPoint x="1007" y="130" as="sourcePoint" />
            <mxPoint x="1247" y="130" as="targetPoint" />
          </mxGeometry>
        </mxCell>
        <mxCell id="B_4Xbb5loBpYio-yjXhm-89" value="&lt;font style=&quot;font-size: 12px;&quot;&gt;GetUserInfoSteam(userId)&lt;/font&gt;" style="edgeLabel;html=1;align=center;verticalAlign=middle;resizable=0;points=[];fontSize=12;fontFamily=Helvetica;fontColor=default;" parent="B_4Xbb5loBpYio-yjXhm-88" vertex="1" connectable="0">
          <mxGeometry x="-0.275" y="-1" relative="1" as="geometry">
            <mxPoint x="37" y="-10" as="offset" />
          </mxGeometry>
        </mxCell>
        <mxCell id="B_4Xbb5loBpYio-yjXhm-99" value="GetUserInfoSteam(userId)" style="html=1;verticalAlign=bottom;endArrow=block;curved=0;rounded=0;entryX=0;entryY=0;entryDx=0;entryDy=5;fontFamily=Helvetica;fontSize=12;fontColor=default;" parent="1" source="B_4Xbb5loBpYio-yjXhm-87" target="B_4Xbb5loBpYio-yjXhm-98" edge="1">
          <mxGeometry relative="1" as="geometry">
            <mxPoint x="1262" y="142" as="sourcePoint" />
          </mxGeometry>
        </mxCell>
        <mxCell id="B_4Xbb5loBpYio-yjXhm-100" value="UserInfoSteamResponse" style="html=1;verticalAlign=bottom;endArrow=open;dashed=1;endSize=8;curved=0;rounded=0;exitX=0;exitY=1;exitDx=0;exitDy=-5;fontFamily=Helvetica;fontSize=12;fontColor=default;" parent="1" source="B_4Xbb5loBpYio-yjXhm-98" target="B_4Xbb5loBpYio-yjXhm-87" edge="1">
          <mxGeometry relative="1" as="geometry">
            <mxPoint x="1262" y="212" as="targetPoint" />
          </mxGeometry>
        </mxCell>
        <mxCell id="B_4Xbb5loBpYio-yjXhm-101" value="UserInfoSteamResponse" style="html=1;verticalAlign=bottom;endArrow=open;dashed=1;endSize=8;curved=0;rounded=0;exitX=0;exitY=1;exitDx=0;exitDy=-5;fontFamily=Helvetica;fontSize=12;fontColor=default;" parent="1" edge="1">
          <mxGeometry relative="1" as="geometry">
            <mxPoint x="1007" y="217" as="targetPoint" />
            <mxPoint x="1247" y="217" as="sourcePoint" />
          </mxGeometry>
        </mxCell>
        <mxCell id="RHDwDdP0duc58COCyPNJ-1" value=":Domain" style="shape=umlLifeline;perimeter=lifelinePerimeter;whiteSpace=wrap;html=1;container=1;dropTarget=0;collapsible=0;recursiveResize=0;outlineConnect=0;portConstraint=eastwest;newEdgeStyle={&quot;curved&quot;:0,&quot;rounded&quot;:0};" parent="1" vertex="1">
          <mxGeometry x="1760" y="60" width="100" height="200" as="geometry" />
        </mxCell>
        <mxCell id="RHDwDdP0duc58COCyPNJ-2" value="" style="html=1;points=[[0,0,0,0,5],[0,1,0,0,-5],[1,0,0,0,5],[1,1,0,0,-5]];perimeter=orthogonalPerimeter;outlineConnect=0;targetShapes=umlLifeline;portConstraint=eastwest;newEdgeStyle={&quot;curved&quot;:0,&quot;rounded&quot;:0};rounded=0;glass=0;fillStyle=auto;strokeColor=default;align=center;verticalAlign=middle;spacingLeft=0;spacingTop=0;fontFamily=Helvetica;fontSize=12;fontColor=default;fillColor=default;" parent="RHDwDdP0duc58COCyPNJ-1" vertex="1">
          <mxGeometry x="45" y="60" width="10" height="120" as="geometry" />
        </mxCell>
        <mxCell id="RHDwDdP0duc58COCyPNJ-3" value=":Infrastructure" style="shape=umlLifeline;perimeter=lifelinePerimeter;whiteSpace=wrap;html=1;container=1;dropTarget=0;collapsible=0;recursiveResize=0;outlineConnect=0;portConstraint=eastwest;newEdgeStyle={&quot;curved&quot;:0,&quot;rounded&quot;:0};" parent="1" vertex="1">
          <mxGeometry x="2010" y="60" width="100" height="200" as="geometry" />
        </mxCell>
        <mxCell id="RHDwDdP0duc58COCyPNJ-4" value="" style="shape=umlLifeline;perimeter=lifelinePerimeter;whiteSpace=wrap;html=1;container=1;dropTarget=0;collapsible=0;recursiveResize=0;outlineConnect=0;portConstraint=eastwest;newEdgeStyle={&quot;curved&quot;:0,&quot;rounded&quot;:0};participant=umlActor;" parent="1" vertex="1">
          <mxGeometry x="2300" y="60" width="20" height="200" as="geometry" />
        </mxCell>
        <mxCell id="RHDwDdP0duc58COCyPNJ-5" value="" style="html=1;points=[[0,0,0,0,5],[0,1,0,0,-5],[1,0,0,0,5],[1,1,0,0,-5]];perimeter=orthogonalPerimeter;outlineConnect=0;targetShapes=umlLifeline;portConstraint=eastwest;newEdgeStyle={&quot;curved&quot;:0,&quot;rounded&quot;:0};rounded=0;glass=0;fillStyle=auto;strokeColor=default;align=center;verticalAlign=middle;spacingLeft=0;spacingTop=0;fontFamily=Helvetica;fontSize=12;fontColor=default;fillColor=default;" parent="RHDwDdP0duc58COCyPNJ-4" vertex="1">
          <mxGeometry x="5" y="90" width="10" height="40" as="geometry" />
        </mxCell>
        <mxCell id="RHDwDdP0duc58COCyPNJ-6" value="&lt;font style=&quot;font-size: 22px;&quot;&gt;&lt;b&gt;Obtener inventario de usuario&lt;/b&gt;&lt;/font&gt;" style="text;html=1;strokeColor=none;fillColor=none;align=center;verticalAlign=middle;whiteSpace=wrap;rounded=0;fontSize=12;fontFamily=Helvetica;fontColor=default;" parent="1" vertex="1">
          <mxGeometry x="1750" y="10" width="340" height="30" as="geometry" />
        </mxCell>
        <mxCell id="RHDwDdP0duc58COCyPNJ-7" value="Steam WebApi" style="text;html=1;strokeColor=none;fillColor=none;align=center;verticalAlign=middle;whiteSpace=wrap;rounded=0;fontSize=12;fontFamily=Helvetica;fontColor=default;" parent="1" vertex="1">
          <mxGeometry x="2268" y="38" width="90" height="30" as="geometry" />
        </mxCell>
        <mxCell id="RHDwDdP0duc58COCyPNJ-8" value="" style="html=1;points=[[0,0,0,0,5],[0,1,0,0,-5],[1,0,0,0,5],[1,1,0,0,-5]];perimeter=orthogonalPerimeter;outlineConnect=0;targetShapes=umlLifeline;portConstraint=eastwest;newEdgeStyle={&quot;curved&quot;:0,&quot;rounded&quot;:0};rounded=0;glass=0;fillStyle=auto;strokeColor=default;align=center;verticalAlign=middle;spacingLeft=0;spacingTop=0;fontFamily=Helvetica;fontSize=12;fontColor=default;fillColor=default;" parent="1" vertex="1">
          <mxGeometry x="2055" y="120" width="10" height="120" as="geometry" />
        </mxCell>
        <mxCell id="RHDwDdP0duc58COCyPNJ-9" style="edgeStyle=orthogonalEdgeStyle;rounded=0;orthogonalLoop=1;jettySize=auto;html=1;curved=0;exitX=1;exitY=0;exitDx=0;exitDy=5;exitPerimeter=0;entryX=0;entryY=0;entryDx=0;entryDy=5;entryPerimeter=0;fontFamily=Helvetica;fontSize=12;fontColor=default;" parent="1" edge="1">
          <mxGeometry relative="1" as="geometry">
            <mxPoint x="1815" y="130" as="sourcePoint" />
            <mxPoint x="2055" y="130" as="targetPoint" />
          </mxGeometry>
        </mxCell>
        <mxCell id="RHDwDdP0duc58COCyPNJ-10" value="&lt;font style=&quot;font-size: 10px;&quot;&gt;GetUserInventoryItemsSteamByUserId(userId)&lt;/font&gt;" style="edgeLabel;html=1;align=center;verticalAlign=middle;resizable=0;points=[];fontSize=12;fontFamily=Helvetica;fontColor=default;" parent="RHDwDdP0duc58COCyPNJ-9" vertex="1" connectable="0">
          <mxGeometry x="-0.275" y="-1" relative="1" as="geometry">
            <mxPoint x="31" y="-12" as="offset" />
          </mxGeometry>
        </mxCell>
        <mxCell id="RHDwDdP0duc58COCyPNJ-11" value="&lt;font style=&quot;font-size: 10px;&quot;&gt;GetUserInventoryItemsSteamByUserId(userId)&lt;/font&gt;" style="html=1;verticalAlign=bottom;endArrow=block;curved=0;rounded=0;entryX=0;entryY=0;entryDx=0;entryDy=5;fontFamily=Helvetica;fontSize=12;fontColor=default;" parent="1" source="RHDwDdP0duc58COCyPNJ-8" target="RHDwDdP0duc58COCyPNJ-5" edge="1">
          <mxGeometry relative="1" as="geometry">
            <mxPoint x="2070" y="142" as="sourcePoint" />
            <mxPoint as="offset" />
          </mxGeometry>
        </mxCell>
        <mxCell id="RHDwDdP0duc58COCyPNJ-12" value="UserInventoryItemsSteamResponse" style="html=1;verticalAlign=bottom;endArrow=open;dashed=1;endSize=8;curved=0;rounded=0;exitX=0;exitY=1;exitDx=0;exitDy=-5;fontFamily=Helvetica;fontSize=12;fontColor=default;" parent="1" source="RHDwDdP0duc58COCyPNJ-5" target="RHDwDdP0duc58COCyPNJ-8" edge="1">
          <mxGeometry relative="1" as="geometry">
            <mxPoint x="2070" y="212" as="targetPoint" />
          </mxGeometry>
        </mxCell>
        <mxCell id="RHDwDdP0duc58COCyPNJ-13" value="UserInventorySteamItemsNotDuplicated" style="html=1;verticalAlign=bottom;endArrow=open;dashed=1;endSize=8;curved=0;rounded=0;exitX=0;exitY=1;exitDx=0;exitDy=-5;fontFamily=Helvetica;fontSize=12;fontColor=default;" parent="1" edge="1">
          <mxGeometry relative="1" as="geometry">
            <mxPoint x="1815" y="217" as="targetPoint" />
            <mxPoint x="2055" y="217" as="sourcePoint" />
          </mxGeometry>
        </mxCell>
        <mxCell id="RHDwDdP0duc58COCyPNJ-17" value=":Domain" style="shape=umlLifeline;perimeter=lifelinePerimeter;whiteSpace=wrap;html=1;container=1;dropTarget=0;collapsible=0;recursiveResize=0;outlineConnect=0;portConstraint=eastwest;newEdgeStyle={&quot;curved&quot;:0,&quot;rounded&quot;:0};rounded=0;glass=0;fillStyle=auto;strokeColor=default;align=center;verticalAlign=middle;spacingLeft=0;spacingTop=0;fontFamily=Helvetica;fontSize=12;fontColor=default;fillColor=default;" parent="1" vertex="1">
          <mxGeometry x="110" y="600" width="100" height="640" as="geometry" />
        </mxCell>
        <mxCell id="RHDwDdP0duc58COCyPNJ-24" value="" style="html=1;points=[[0,0,0,0,5],[0,1,0,0,-5],[1,0,0,0,5],[1,1,0,0,-5]];perimeter=orthogonalPerimeter;outlineConnect=0;targetShapes=umlLifeline;portConstraint=eastwest;newEdgeStyle={&quot;curved&quot;:0,&quot;rounded&quot;:0};rounded=0;glass=0;fillStyle=auto;strokeColor=default;align=center;verticalAlign=middle;spacingLeft=0;spacingTop=0;fontFamily=Helvetica;fontSize=12;fontColor=default;fillColor=default;" parent="1" vertex="1">
          <mxGeometry x="155" y="659" width="10" height="551" as="geometry" />
        </mxCell>
        <mxCell id="RHDwDdP0duc58COCyPNJ-26" value=":Repository" style="shape=umlLifeline;perimeter=lifelinePerimeter;whiteSpace=wrap;html=1;container=1;dropTarget=0;collapsible=0;recursiveResize=0;outlineConnect=0;portConstraint=eastwest;newEdgeStyle={&quot;curved&quot;:0,&quot;rounded&quot;:0};" parent="1" vertex="1">
          <mxGeometry x="345" y="600" width="100" height="640" as="geometry" />
        </mxCell>
        <mxCell id="RHDwDdP0duc58COCyPNJ-27" value="" style="html=1;points=[[0,0,0,0,5],[0,0.5,0,0,0],[0,1,0,0,-5],[1,0,0,0,5],[1,0.29,0,0,0],[1,0.5,0,0,0],[1,0.72,0,0,0],[1,1,0,0,-5]];perimeter=orthogonalPerimeter;outlineConnect=0;targetShapes=umlLifeline;portConstraint=eastwest;newEdgeStyle={&quot;curved&quot;:0,&quot;rounded&quot;:0};rounded=0;glass=0;fillStyle=auto;strokeColor=default;align=center;verticalAlign=middle;spacingLeft=0;spacingTop=0;fontFamily=Helvetica;fontSize=12;fontColor=default;fillColor=default;" parent="RHDwDdP0duc58COCyPNJ-26" vertex="1">
          <mxGeometry x="45" y="59" width="10" height="101" as="geometry" />
        </mxCell>
        <mxCell id="RHDwDdP0duc58COCyPNJ-90" value="" style="html=1;points=[[0,0,0,0,5],[0,1,0,0,-5],[1,0,0,0,5],[1,1,0,0,-5]];perimeter=orthogonalPerimeter;outlineConnect=0;targetShapes=umlLifeline;portConstraint=eastwest;newEdgeStyle={&quot;curved&quot;:0,&quot;rounded&quot;:0};" parent="RHDwDdP0duc58COCyPNJ-26" vertex="1">
          <mxGeometry x="45" y="500" width="10" height="60" as="geometry" />
        </mxCell>
        <mxCell id="RHDwDdP0duc58COCyPNJ-29" value="&lt;font style=&quot;font-size: 22px;&quot;&gt;&lt;b&gt;Obtener histórico de items del usuario&lt;/b&gt;&lt;/font&gt;" style="text;html=1;strokeColor=none;fillColor=none;align=center;verticalAlign=middle;whiteSpace=wrap;rounded=0;fontSize=12;fontFamily=Helvetica;fontColor=default;" parent="1" vertex="1">
          <mxGeometry x="35" y="510" width="425" height="30" as="geometry" />
        </mxCell>
        <mxCell id="RHDwDdP0duc58COCyPNJ-30" value="[foreach (item in notExistingItems)]" style="text;html=1;strokeColor=none;fillColor=none;align=center;verticalAlign=middle;whiteSpace=wrap;rounded=0;fontSize=12;fontFamily=Helvetica;fontColor=default;" parent="1" vertex="1">
          <mxGeometry x="165" y="917.25" width="205" height="30" as="geometry" />
        </mxCell>
        <mxCell id="RHDwDdP0duc58COCyPNJ-35" value=":Infrastructure" style="shape=umlLifeline;perimeter=lifelinePerimeter;whiteSpace=wrap;html=1;container=1;dropTarget=0;collapsible=0;recursiveResize=0;outlineConnect=0;portConstraint=eastwest;newEdgeStyle={&quot;curved&quot;:0,&quot;rounded&quot;:0};rounded=0;glass=0;fillStyle=auto;strokeColor=default;align=center;verticalAlign=middle;spacingLeft=0;spacingTop=0;fontFamily=Helvetica;fontSize=12;fontColor=default;fillColor=default;" parent="1" vertex="1">
          <mxGeometry x="610" y="600" width="100" height="640" as="geometry" />
        </mxCell>
        <mxCell id="RHDwDdP0duc58COCyPNJ-81" value="" style="html=1;points=[[0,0,0,0,5],[0,1,0,0,-5],[1,0,0,0,5],[1,1,0,0,-5]];perimeter=orthogonalPerimeter;outlineConnect=0;targetShapes=umlLifeline;portConstraint=eastwest;newEdgeStyle={&quot;curved&quot;:0,&quot;rounded&quot;:0};" parent="RHDwDdP0duc58COCyPNJ-35" vertex="1">
          <mxGeometry x="45" y="350" width="10" height="70" as="geometry" />
        </mxCell>
        <mxCell id="RHDwDdP0duc58COCyPNJ-40" value="" style="shape=umlLifeline;perimeter=lifelinePerimeter;whiteSpace=wrap;html=1;container=1;dropTarget=0;collapsible=0;recursiveResize=0;outlineConnect=0;portConstraint=eastwest;newEdgeStyle={&quot;curved&quot;:0,&quot;rounded&quot;:0};participant=umlActor;" parent="1" vertex="1">
          <mxGeometry x="1230" y="600" width="20" height="640" as="geometry" />
        </mxCell>
        <mxCell id="RHDwDdP0duc58COCyPNJ-42" value="Steam WebApi" style="text;html=1;strokeColor=none;fillColor=none;align=center;verticalAlign=middle;whiteSpace=wrap;rounded=0;fontSize=12;fontFamily=Helvetica;fontColor=default;" parent="1" vertex="1">
          <mxGeometry x="1195" y="576" width="90" height="30" as="geometry" />
        </mxCell>
        <mxCell id="RHDwDdP0duc58COCyPNJ-50" value="MongoDB" style="shape=umlLifeline;perimeter=lifelinePerimeter;whiteSpace=wrap;html=1;container=1;dropTarget=0;collapsible=0;recursiveResize=0;outlineConnect=0;portConstraint=eastwest;newEdgeStyle={&quot;curved&quot;:0,&quot;rounded&quot;:0};rounded=0;glass=0;fillStyle=auto;strokeColor=default;align=center;verticalAlign=middle;spacingLeft=0;spacingTop=0;fontFamily=Helvetica;fontSize=12;fontColor=default;fillColor=default;" parent="1" vertex="1">
          <mxGeometry x="930" y="600" width="100" height="640" as="geometry" />
        </mxCell>
        <mxCell id="RHDwDdP0duc58COCyPNJ-64" value="" style="html=1;points=[[0,0,0,0,5],[0,1,0,0,-5],[1,0,0,0,5],[1,1,0,0,-5]];perimeter=orthogonalPerimeter;outlineConnect=0;targetShapes=umlLifeline;portConstraint=eastwest;newEdgeStyle={&quot;curved&quot;:0,&quot;rounded&quot;:0};" parent="RHDwDdP0duc58COCyPNJ-50" vertex="1">
          <mxGeometry x="45" y="80" width="10" height="67" as="geometry" />
        </mxCell>
        <mxCell id="RHDwDdP0duc58COCyPNJ-93" value="" style="html=1;points=[[0,0,0,0,5],[0,1,0,0,-5],[1,0,0,0,5],[1,1,0,0,-5]];perimeter=orthogonalPerimeter;outlineConnect=0;targetShapes=umlLifeline;portConstraint=eastwest;newEdgeStyle={&quot;curved&quot;:0,&quot;rounded&quot;:0};" parent="RHDwDdP0duc58COCyPNJ-50" vertex="1">
          <mxGeometry x="45" y="511" width="10" height="35" as="geometry" />
        </mxCell>
        <mxCell id="RHDwDdP0duc58COCyPNJ-52" style="edgeStyle=orthogonalEdgeStyle;rounded=0;orthogonalLoop=1;jettySize=auto;html=1;curved=0;exitX=1;exitY=0;exitDx=0;exitDy=5;exitPerimeter=0;entryX=0;entryY=0;entryDx=0;entryDy=5;entryPerimeter=0;" parent="1" source="RHDwDdP0duc58COCyPNJ-24" target="RHDwDdP0duc58COCyPNJ-27" edge="1">
          <mxGeometry relative="1" as="geometry" />
        </mxCell>
        <mxCell id="RHDwDdP0duc58COCyPNJ-53" value="&lt;font style=&quot;font-size: 10px;&quot;&gt;GetSteamItemsByIdsDb(userInventoryItems)&lt;/font&gt;" style="edgeLabel;html=1;align=center;verticalAlign=middle;resizable=0;points=[];" parent="RHDwDdP0duc58COCyPNJ-52" vertex="1" connectable="0">
          <mxGeometry x="-0.0751" y="1" relative="1" as="geometry">
            <mxPoint x="5" y="-7" as="offset" />
          </mxGeometry>
        </mxCell>
        <mxCell id="RHDwDdP0duc58COCyPNJ-65" value="&amp;nbsp;GetSteamItemsByIdsAsync(&amp;lt;IEnumerable&amp;gt; itemIds)" style="html=1;verticalAlign=bottom;endArrow=block;curved=0;rounded=0;entryX=0;entryY=0;entryDx=0;entryDy=5;" parent="1" source="RHDwDdP0duc58COCyPNJ-27" target="RHDwDdP0duc58COCyPNJ-64" edge="1">
          <mxGeometry relative="1" as="geometry">
            <mxPoint x="905" y="685" as="sourcePoint" />
          </mxGeometry>
        </mxCell>
        <mxCell id="RHDwDdP0duc58COCyPNJ-66" value="SteamItemsWithHistoryExistingOnDB" style="html=1;verticalAlign=bottom;endArrow=open;dashed=1;endSize=8;curved=0;rounded=0;exitX=0;exitY=1;exitDx=0;exitDy=-5;" parent="1" edge="1">
          <mxGeometry relative="1" as="geometry">
            <mxPoint x="400" y="731.9999999999991" as="targetPoint" />
            <mxPoint x="975" y="731.9999999999991" as="sourcePoint" />
          </mxGeometry>
        </mxCell>
        <mxCell id="RHDwDdP0duc58COCyPNJ-67" value="steamItemsOnDb" style="html=1;verticalAlign=bottom;endArrow=open;dashed=1;endSize=8;curved=0;rounded=0;" parent="1" target="RHDwDdP0duc58COCyPNJ-24" edge="1">
          <mxGeometry relative="1" as="geometry">
            <mxPoint x="390" y="750" as="sourcePoint" />
            <mxPoint x="310" y="750" as="targetPoint" />
          </mxGeometry>
        </mxCell>
        <mxCell id="RHDwDdP0duc58COCyPNJ-68" value="&lt;font style=&quot;font-size: 10px;&quot;&gt;GetNotExistingItemsInDb(steamItemsOnDb,&lt;br&gt;userInventoryItems)&lt;/font&gt;" style="html=1;align=left;spacingLeft=2;endArrow=block;rounded=0;edgeStyle=orthogonalEdgeStyle;curved=0;rounded=0;fontFamily=Helvetica;fontSize=12;fontColor=default;" parent="1" edge="1">
          <mxGeometry relative="1" as="geometry">
            <mxPoint x="164.99999999999977" y="790" as="sourcePoint" />
            <Array as="points">
              <mxPoint x="180" y="790" />
              <mxPoint x="180" y="810" />
            </Array>
            <mxPoint x="164.99999999999977" y="810" as="targetPoint" />
          </mxGeometry>
        </mxCell>
        <mxCell id="RHDwDdP0duc58COCyPNJ-69" value="opt" style="shape=umlFrame;whiteSpace=wrap;html=1;pointerEvents=0;" parent="1" vertex="1">
          <mxGeometry x="60" y="870" width="1340" height="310" as="geometry" />
        </mxCell>
        <mxCell id="RHDwDdP0duc58COCyPNJ-70" value="[notExistingItems?.Any() == true)]" style="text;html=1;strokeColor=none;fillColor=none;align=center;verticalAlign=middle;whiteSpace=wrap;rounded=0;fontSize=12;fontFamily=Helvetica;fontColor=default;" parent="1" vertex="1">
          <mxGeometry x="163" y="877" width="200" height="30" as="geometry" />
        </mxCell>
        <mxCell id="RHDwDdP0duc58COCyPNJ-71" value="loop" style="shape=umlFrame;whiteSpace=wrap;html=1;pointerEvents=0;" parent="1" vertex="1">
          <mxGeometry x="70" y="910" width="1300" height="170" as="geometry" />
        </mxCell>
        <mxCell id="RHDwDdP0duc58COCyPNJ-82" value="GetHistoryItemSteam(itemName)" style="html=1;verticalAlign=bottom;endArrow=block;curved=0;rounded=0;entryX=0;entryY=0;entryDx=0;entryDy=5;" parent="1" source="RHDwDdP0duc58COCyPNJ-24" target="RHDwDdP0duc58COCyPNJ-81" edge="1">
          <mxGeometry x="0.3265" relative="1" as="geometry">
            <mxPoint x="596" y="955" as="sourcePoint" />
            <mxPoint as="offset" />
          </mxGeometry>
        </mxCell>
        <mxCell id="RHDwDdP0duc58COCyPNJ-83" value="SteamItemWithHistory" style="html=1;verticalAlign=bottom;endArrow=open;dashed=1;endSize=8;curved=0;rounded=0;exitX=0;exitY=1;exitDx=0;exitDy=-5;" parent="1" source="RHDwDdP0duc58COCyPNJ-81" target="RHDwDdP0duc58COCyPNJ-24" edge="1">
          <mxGeometry relative="1" as="geometry">
            <mxPoint x="586" y="985" as="targetPoint" />
          </mxGeometry>
        </mxCell>
        <mxCell id="RHDwDdP0duc58COCyPNJ-85" value="" style="html=1;points=[[0,0,0,0,5],[0,1,0,0,-5],[1,0,0,0,5],[1,1,0,0,-5]];perimeter=orthogonalPerimeter;outlineConnect=0;targetShapes=umlLifeline;portConstraint=eastwest;newEdgeStyle={&quot;curved&quot;:0,&quot;rounded&quot;:0};" parent="1" vertex="1">
          <mxGeometry x="1236" y="965" width="10" height="40" as="geometry" />
        </mxCell>
        <mxCell id="RHDwDdP0duc58COCyPNJ-86" value="GetHistoryItemSteam(itemName)" style="html=1;verticalAlign=bottom;endArrow=block;curved=0;rounded=0;entryX=0;entryY=0;entryDx=0;entryDy=5;" parent="1" source="RHDwDdP0duc58COCyPNJ-81" target="RHDwDdP0duc58COCyPNJ-85" edge="1">
          <mxGeometry x="-0.3217" relative="1" as="geometry">
            <mxPoint x="1170" y="970" as="sourcePoint" />
            <mxPoint as="offset" />
          </mxGeometry>
        </mxCell>
        <mxCell id="RHDwDdP0duc58COCyPNJ-87" value="UserInventoryHistorySteamResponse" style="html=1;verticalAlign=bottom;endArrow=open;dashed=1;endSize=8;curved=0;rounded=0;exitX=0;exitY=1;exitDx=0;exitDy=-5;" parent="1" source="RHDwDdP0duc58COCyPNJ-85" target="RHDwDdP0duc58COCyPNJ-81" edge="1">
          <mxGeometry relative="1" as="geometry">
            <mxPoint x="1170" y="1000" as="targetPoint" />
          </mxGeometry>
        </mxCell>
        <mxCell id="RHDwDdP0duc58COCyPNJ-89" value="AddNewItem(&lt;span style=&quot;font-size: 11px; text-align: center;&quot;&gt;SteamItemWithHistory&lt;/span&gt;&lt;span style=&quot;font-size: 10px;&quot;&gt;)&lt;/span&gt;" style="html=1;align=left;spacingLeft=2;endArrow=block;rounded=0;edgeStyle=orthogonalEdgeStyle;curved=0;rounded=0;fontFamily=Helvetica;fontSize=12;fontColor=default;" parent="1" edge="1">
          <mxGeometry relative="1" as="geometry">
            <mxPoint x="164.99999999999977" y="1040.03" as="sourcePoint" />
            <Array as="points">
              <mxPoint x="180" y="1040.03" />
              <mxPoint x="180" y="1060.03" />
            </Array>
            <mxPoint x="164.99999999999977" y="1060.03" as="targetPoint" />
          </mxGeometry>
        </mxCell>
        <mxCell id="RHDwDdP0duc58COCyPNJ-91" value="AddMultipleSteamItems(newItems)" style="html=1;verticalAlign=bottom;endArrow=block;curved=0;rounded=0;entryX=0;entryY=0;entryDx=0;entryDy=5;" parent="1" source="RHDwDdP0duc58COCyPNJ-24" target="RHDwDdP0duc58COCyPNJ-90" edge="1">
          <mxGeometry relative="1" as="geometry">
            <mxPoint x="335.16666666666697" y="1105" as="sourcePoint" />
          </mxGeometry>
        </mxCell>
        <mxCell id="RHDwDdP0duc58COCyPNJ-92" value="return" style="html=1;verticalAlign=bottom;endArrow=open;dashed=1;endSize=8;curved=0;rounded=0;exitX=0;exitY=1;exitDx=0;exitDy=-5;" parent="1" source="RHDwDdP0duc58COCyPNJ-90" target="RHDwDdP0duc58COCyPNJ-24" edge="1">
          <mxGeometry relative="1" as="geometry">
            <mxPoint x="320" y="1135" as="targetPoint" />
          </mxGeometry>
        </mxCell>
        <mxCell id="RHDwDdP0duc58COCyPNJ-96" value="&lt;span style=&quot;color: rgb(0, 0, 0); font-family: Helvetica; font-size: 11px; font-style: normal; font-variant-ligatures: normal; font-variant-caps: normal; font-weight: 400; letter-spacing: normal; orphans: 2; text-align: center; text-indent: 0px; text-transform: none; widows: 2; word-spacing: 0px; -webkit-text-stroke-width: 0px; background-color: rgb(255, 255, 255); text-decoration-thickness: initial; text-decoration-style: initial; text-decoration-color: initial; float: none; display: inline !important;&quot;&gt;AddMultipleSteamItems(newItems)&lt;/span&gt;" style="edgeStyle=orthogonalEdgeStyle;rounded=0;orthogonalLoop=1;jettySize=auto;html=1;curved=0;endArrow=block;endFill=1;entryX=0;entryY=0;entryDx=0;entryDy=5;entryPerimeter=0;exitX=1.061;exitY=0.259;exitDx=0;exitDy=0;exitPerimeter=0;" parent="1" source="RHDwDdP0duc58COCyPNJ-90" target="RHDwDdP0duc58COCyPNJ-93" edge="1">
          <mxGeometry x="0.0807" y="9" relative="1" as="geometry">
            <Array as="points">
              <mxPoint x="690" y="1115" />
            </Array>
            <mxPoint as="offset" />
          </mxGeometry>
        </mxCell>
        <mxCell id="RHDwDdP0duc58COCyPNJ-95" value="return" style="html=1;verticalAlign=bottom;endArrow=open;dashed=1;endSize=8;curved=0;rounded=0;exitX=0;exitY=1;exitDx=0;exitDy=-5;" parent="1" source="RHDwDdP0duc58COCyPNJ-93" target="RHDwDdP0duc58COCyPNJ-90" edge="1">
          <mxGeometry relative="1" as="geometry">
            <mxPoint x="905" y="1140" as="targetPoint" />
          </mxGeometry>
        </mxCell>
        <mxCell id="RHDwDdP0duc58COCyPNJ-97" value=":Domain" style="shape=umlLifeline;perimeter=lifelinePerimeter;whiteSpace=wrap;html=1;container=1;dropTarget=0;collapsible=0;recursiveResize=0;outlineConnect=0;portConstraint=eastwest;newEdgeStyle={&quot;curved&quot;:0,&quot;rounded&quot;:0};" parent="1" vertex="1">
          <mxGeometry x="1600" y="560" width="100" height="280" as="geometry" />
        </mxCell>
        <mxCell id="RHDwDdP0duc58COCyPNJ-98" value="" style="html=1;points=[[0,0,0,0,5],[0,1,0,0,-5],[1,0,0,0,5],[1,1,0,0,-5]];perimeter=orthogonalPerimeter;outlineConnect=0;targetShapes=umlLifeline;portConstraint=eastwest;newEdgeStyle={&quot;curved&quot;:0,&quot;rounded&quot;:0};rounded=0;glass=0;fillStyle=auto;strokeColor=default;align=center;verticalAlign=middle;spacingLeft=0;spacingTop=0;fontFamily=Helvetica;fontSize=12;fontColor=default;fillColor=default;" parent="RHDwDdP0duc58COCyPNJ-97" vertex="1">
          <mxGeometry x="45" y="60" width="10" height="180" as="geometry" />
        </mxCell>
        <mxCell id="RHDwDdP0duc58COCyPNJ-99" value=":Repository" style="shape=umlLifeline;perimeter=lifelinePerimeter;whiteSpace=wrap;html=1;container=1;dropTarget=0;collapsible=0;recursiveResize=0;outlineConnect=0;portConstraint=eastwest;newEdgeStyle={&quot;curved&quot;:0,&quot;rounded&quot;:0};" parent="1" vertex="1">
          <mxGeometry x="1890" y="560" width="100" height="280" as="geometry" />
        </mxCell>
        <mxCell id="RHDwDdP0duc58COCyPNJ-102" value="&lt;font style=&quot;font-size: 22px;&quot;&gt;&lt;b&gt;Analizar el histórico de cada item del usuario&lt;/b&gt;&lt;/font&gt;" style="text;html=1;strokeColor=none;fillColor=none;align=center;verticalAlign=middle;whiteSpace=wrap;rounded=0;fontSize=12;fontFamily=Helvetica;fontColor=default;" parent="1" vertex="1">
          <mxGeometry x="1600" y="510" width="480" height="30" as="geometry" />
        </mxCell>
        <mxCell id="RHDwDdP0duc58COCyPNJ-104" value="" style="html=1;points=[[0,0,0,0,5],[0,1,0,0,-5],[1,0,0,0,5],[1,1,0,0,-5]];perimeter=orthogonalPerimeter;outlineConnect=0;targetShapes=umlLifeline;portConstraint=eastwest;newEdgeStyle={&quot;curved&quot;:0,&quot;rounded&quot;:0};rounded=0;glass=0;fillStyle=auto;strokeColor=default;align=center;verticalAlign=middle;spacingLeft=0;spacingTop=0;fontFamily=Helvetica;fontSize=12;fontColor=default;fillColor=default;" parent="1" vertex="1">
          <mxGeometry x="1935" y="620" width="10" height="120" as="geometry" />
        </mxCell>
        <mxCell id="RHDwDdP0duc58COCyPNJ-105" style="edgeStyle=orthogonalEdgeStyle;rounded=0;orthogonalLoop=1;jettySize=auto;html=1;curved=0;entryX=0;entryY=0;entryDx=0;entryDy=5;entryPerimeter=0;fontFamily=Helvetica;fontSize=12;fontColor=default;" parent="1" edge="1">
          <mxGeometry relative="1" as="geometry">
            <mxPoint x="1656" y="630" as="sourcePoint" />
            <mxPoint x="1935" y="630" as="targetPoint" />
          </mxGeometry>
        </mxCell>
        <mxCell id="RHDwDdP0duc58COCyPNJ-106" value="&lt;font style=&quot;font-size: 10px;&quot;&gt;GetSteamItemsByIdsDb(userInventoryItems)&lt;/font&gt;" style="edgeLabel;html=1;align=center;verticalAlign=middle;resizable=0;points=[];fontSize=12;fontFamily=Helvetica;fontColor=default;" parent="RHDwDdP0duc58COCyPNJ-105" vertex="1" connectable="0">
          <mxGeometry x="-0.275" y="-1" relative="1" as="geometry">
            <mxPoint x="36" y="-12" as="offset" />
          </mxGeometry>
        </mxCell>
        <mxCell id="RHDwDdP0duc58COCyPNJ-107" value="&lt;font style=&quot;font-size: 10px;&quot;&gt;&amp;nbsp;GetSteamItemsByIdsAsync(&amp;lt;IEnumerable&amp;gt; itemIds)&lt;/font&gt;" style="html=1;verticalAlign=bottom;endArrow=block;curved=0;rounded=0;entryX=0;entryY=0;entryDx=0;entryDy=5;fontFamily=Helvetica;fontSize=12;fontColor=default;" parent="1" edge="1">
          <mxGeometry relative="1" as="geometry">
            <mxPoint x="1945" y="655" as="sourcePoint" />
            <mxPoint as="offset" />
            <mxPoint x="2183" y="655.0000000000009" as="targetPoint" />
          </mxGeometry>
        </mxCell>
        <mxCell id="RHDwDdP0duc58COCyPNJ-108" value="&lt;font style=&quot;font-size: 10px;&quot;&gt;SteamItemsWithHistoryExistingOnDB&lt;/font&gt;" style="html=1;verticalAlign=bottom;endArrow=open;dashed=1;endSize=8;curved=0;rounded=0;exitX=0;exitY=1;exitDx=0;exitDy=-5;fontFamily=Helvetica;fontSize=12;fontColor=default;" parent="1" target="RHDwDdP0duc58COCyPNJ-104" edge="1">
          <mxGeometry relative="1" as="geometry">
            <mxPoint x="1950" y="712" as="targetPoint" />
            <mxPoint x="2185" y="685.0000000000009" as="sourcePoint" />
          </mxGeometry>
        </mxCell>
        <mxCell id="RHDwDdP0duc58COCyPNJ-109" value="steamItemsOnDb" style="html=1;verticalAlign=bottom;endArrow=open;dashed=1;endSize=8;curved=0;rounded=0;exitX=0;exitY=1;exitDx=0;exitDy=-5;fontFamily=Helvetica;fontSize=12;fontColor=default;" parent="1" edge="1">
          <mxGeometry relative="1" as="geometry">
            <mxPoint x="1655" y="720" as="targetPoint" />
            <mxPoint x="1935" y="720" as="sourcePoint" />
          </mxGeometry>
        </mxCell>
        <mxCell id="RHDwDdP0duc58COCyPNJ-110" value="MongoDB" style="shape=umlLifeline;perimeter=lifelinePerimeter;whiteSpace=wrap;html=1;container=1;dropTarget=0;collapsible=0;recursiveResize=0;outlineConnect=0;portConstraint=eastwest;newEdgeStyle={&quot;curved&quot;:0,&quot;rounded&quot;:0};" parent="1" vertex="1">
          <mxGeometry x="2140" y="560" width="100" height="280" as="geometry" />
        </mxCell>
        <mxCell id="RHDwDdP0duc58COCyPNJ-111" value="" style="html=1;points=[[0,0,0,0,5],[0,1,0,0,-5],[1,0,0,0,5],[1,1,0,0,-5]];perimeter=orthogonalPerimeter;outlineConnect=0;targetShapes=umlLifeline;portConstraint=eastwest;newEdgeStyle={&quot;curved&quot;:0,&quot;rounded&quot;:0};rounded=0;glass=0;fillStyle=auto;strokeColor=default;align=center;verticalAlign=middle;spacingLeft=0;spacingTop=0;fontFamily=Helvetica;fontSize=12;fontColor=default;fillColor=default;" parent="1" vertex="1">
          <mxGeometry x="2185" y="620" width="10" height="120" as="geometry" />
        </mxCell>
        <mxCell id="RHDwDdP0duc58COCyPNJ-113" value="ProfitableItem(steamItemsOnDb.ToDictionary)" style="html=1;align=left;spacingLeft=2;endArrow=block;rounded=0;edgeStyle=orthogonalEdgeStyle;curved=0;rounded=0;fontFamily=Helvetica;fontSize=12;fontColor=default;" parent="1" edge="1">
          <mxGeometry relative="1" as="geometry">
            <mxPoint x="1655.9999999999998" y="750" as="sourcePoint" />
            <Array as="points">
              <mxPoint x="1671" y="750" />
              <mxPoint x="1671" y="770" />
            </Array>
            <mxPoint x="1655.9999999999998" y="770" as="targetPoint" />
          </mxGeometry>
        </mxCell>
        <mxCell id="RHDwDdP0duc58COCyPNJ-114" value="" style="shape=umlLifeline;perimeter=lifelinePerimeter;whiteSpace=wrap;html=1;container=1;dropTarget=0;collapsible=0;recursiveResize=0;outlineConnect=0;portConstraint=eastwest;newEdgeStyle={&quot;curved&quot;:0,&quot;rounded&quot;:0};participant=umlActor;rounded=0;glass=0;fillStyle=auto;strokeColor=default;align=center;verticalAlign=middle;spacingLeft=0;spacingTop=0;fontFamily=Helvetica;fontSize=12;fontColor=default;fillColor=default;" parent="1" vertex="1">
          <mxGeometry x="1631" y="942" width="20" height="178" as="geometry" />
        </mxCell>
        <mxCell id="RHDwDdP0duc58COCyPNJ-115" value="" style="html=1;points=[[0,0,0,0,5],[0,1,0,0,-5],[1,0,0,0,5],[1,1,0,0,-5]];perimeter=orthogonalPerimeter;outlineConnect=0;targetShapes=umlLifeline;portConstraint=eastwest;newEdgeStyle={&quot;curved&quot;:0,&quot;rounded&quot;:0};rounded=0;glass=0;fillStyle=auto;strokeColor=default;align=center;verticalAlign=middle;spacingLeft=0;spacingTop=0;fontFamily=Helvetica;fontSize=12;fontColor=default;fillColor=default;" parent="RHDwDdP0duc58COCyPNJ-114" vertex="1">
          <mxGeometry x="5" y="50" width="10" height="100" as="geometry" />
        </mxCell>
        <mxCell id="RHDwDdP0duc58COCyPNJ-117" value=":Controller" style="shape=umlLifeline;perimeter=lifelinePerimeter;whiteSpace=wrap;html=1;container=1;dropTarget=0;collapsible=0;recursiveResize=0;outlineConnect=0;portConstraint=eastwest;newEdgeStyle={&quot;curved&quot;:0,&quot;rounded&quot;:0};rounded=0;glass=0;fillStyle=auto;strokeColor=default;align=center;verticalAlign=middle;spacingLeft=0;spacingTop=0;fontFamily=Helvetica;fontSize=12;fontColor=default;fillColor=default;" parent="1" vertex="1">
          <mxGeometry x="1876" y="942" width="100" height="178" as="geometry" />
        </mxCell>
        <mxCell id="RHDwDdP0duc58COCyPNJ-124" value="" style="html=1;points=[[0,0,0,0,5],[0,1,0,0,-5],[1,0,0,0,5],[1,1,0,0,-5]];perimeter=orthogonalPerimeter;outlineConnect=0;targetShapes=umlLifeline;portConstraint=eastwest;newEdgeStyle={&quot;curved&quot;:0,&quot;rounded&quot;:0};rounded=0;glass=0;fillStyle=auto;strokeColor=default;align=center;verticalAlign=middle;spacingLeft=0;spacingTop=0;fontFamily=Helvetica;fontSize=12;fontColor=default;fillColor=default;" parent="RHDwDdP0duc58COCyPNJ-117" vertex="1">
          <mxGeometry x="45" y="63" width="10" height="67" as="geometry" />
        </mxCell>
        <mxCell id="RHDwDdP0duc58COCyPNJ-126" value=":Domain" style="shape=umlLifeline;perimeter=lifelinePerimeter;whiteSpace=wrap;html=1;container=1;dropTarget=0;collapsible=0;recursiveResize=0;outlineConnect=0;portConstraint=eastwest;newEdgeStyle={&quot;curved&quot;:0,&quot;rounded&quot;:0};" parent="1" vertex="1">
          <mxGeometry x="2111" y="942" width="100" height="178" as="geometry" />
        </mxCell>
        <mxCell id="RHDwDdP0duc58COCyPNJ-127" value="" style="html=1;points=[[0,0,0,0,5],[0,0.5,0,0,0],[0,1,0,0,-5],[1,0,0,0,5],[1,0.29,0,0,0],[1,0.5,0,0,0],[1,0.72,0,0,0],[1,1,0,0,-5]];perimeter=orthogonalPerimeter;outlineConnect=0;targetShapes=umlLifeline;portConstraint=eastwest;newEdgeStyle={&quot;curved&quot;:0,&quot;rounded&quot;:0};rounded=0;glass=0;fillStyle=auto;strokeColor=default;align=center;verticalAlign=middle;spacingLeft=0;spacingTop=0;fontFamily=Helvetica;fontSize=12;fontColor=default;fillColor=default;" parent="RHDwDdP0duc58COCyPNJ-126" vertex="1">
          <mxGeometry x="45" y="60" width="10" height="50" as="geometry" />
        </mxCell>
        <mxCell id="RHDwDdP0duc58COCyPNJ-129" value="&lt;font style=&quot;font-size: 22px;&quot;&gt;&lt;b&gt;Obtener Inventario con&amp;nbsp;la información detallada&lt;/b&gt;&lt;/font&gt;" style="text;html=1;strokeColor=none;fillColor=none;align=center;verticalAlign=middle;whiteSpace=wrap;rounded=0;fontSize=12;fontFamily=Helvetica;fontColor=default;" parent="1" vertex="1">
          <mxGeometry x="1600" y="890" width="510" height="30" as="geometry" />
        </mxCell>
        <mxCell id="RHDwDdP0duc58COCyPNJ-135" value="CreateUserInventoryResponse()" style="html=1;align=left;spacingLeft=2;endArrow=block;rounded=0;edgeStyle=orthogonalEdgeStyle;curved=0;rounded=0;fontFamily=Helvetica;fontSize=12;fontColor=default;" parent="1" edge="1">
          <mxGeometry relative="1" as="geometry">
            <mxPoint x="2167" y="1015" as="sourcePoint" />
            <Array as="points">
              <mxPoint x="2182" y="1015" />
              <mxPoint x="2182" y="1035" />
            </Array>
            <mxPoint x="2167" y="1035" as="targetPoint" />
          </mxGeometry>
        </mxCell>
        <mxCell id="RHDwDdP0duc58COCyPNJ-136" value="UserInventoryResponse" style="html=1;verticalAlign=bottom;endArrow=open;dashed=1;endSize=8;curved=0;rounded=0;exitX=0;exitY=1;exitDx=0;exitDy=-5;exitPerimeter=0;" parent="1" source="RHDwDdP0duc58COCyPNJ-127" target="RHDwDdP0duc58COCyPNJ-124" edge="1">
          <mxGeometry relative="1" as="geometry">
            <mxPoint x="2010" y="1040" as="sourcePoint" />
            <mxPoint x="1930" y="1040" as="targetPoint" />
          </mxGeometry>
        </mxCell>
        <mxCell id="RHDwDdP0duc58COCyPNJ-137" value="GetUserInventoryApiResponse" style="html=1;verticalAlign=bottom;endArrow=open;dashed=1;endSize=8;curved=0;rounded=0;exitX=0;exitY=1;exitDx=0;exitDy=-5;exitPerimeter=0;" parent="1" source="RHDwDdP0duc58COCyPNJ-124" target="RHDwDdP0duc58COCyPNJ-115" edge="1">
          <mxGeometry relative="1" as="geometry">
            <mxPoint x="1880" y="1070.74" as="sourcePoint" />
            <mxPoint x="1730" y="1071" as="targetPoint" />
          </mxGeometry>
        </mxCell>
        <mxCell id="RHDwDdP0duc58COCyPNJ-138" value="" style="shape=umlLifeline;perimeter=lifelinePerimeter;whiteSpace=wrap;html=1;container=1;dropTarget=0;collapsible=0;recursiveResize=0;outlineConnect=0;portConstraint=eastwest;newEdgeStyle={&quot;curved&quot;:0,&quot;rounded&quot;:0};participant=umlActor;" parent="1" vertex="1">
          <mxGeometry x="149.67" y="1880" width="20" height="1535" as="geometry" />
        </mxCell>
        <mxCell id="RHDwDdP0duc58COCyPNJ-166" value="" style="html=1;points=[[0,0,0,0,5],[0,1,0,0,-5],[1,0,0,0,5],[1,1,0,0,-5]];perimeter=orthogonalPerimeter;outlineConnect=0;targetShapes=umlLifeline;portConstraint=eastwest;newEdgeStyle={&quot;curved&quot;:0,&quot;rounded&quot;:0};rounded=0;glass=0;fillStyle=auto;strokeColor=#6c8ebf;align=center;verticalAlign=middle;spacingLeft=0;spacingTop=0;fontFamily=Helvetica;fontSize=12;fillColor=#dae8fc;" parent="1" vertex="1">
          <mxGeometry x="155.35" y="1940" width="10" height="1355" as="geometry" />
        </mxCell>
        <mxCell id="RHDwDdP0duc58COCyPNJ-167" value="&lt;font style=&quot;font-size: 11px;&quot;&gt;ValidateUserID&lt;/font&gt;" style="html=1;align=left;spacingLeft=2;endArrow=block;rounded=0;edgeStyle=orthogonalEdgeStyle;curved=0;rounded=0;fontFamily=Helvetica;fontSize=12;fontColor=default;" parent="1" edge="1">
          <mxGeometry relative="1" as="geometry">
            <mxPoint x="445.3499999999998" y="1957" as="sourcePoint" />
            <Array as="points">
              <mxPoint x="460.35" y="1957" />
              <mxPoint x="460.35" y="1977" />
            </Array>
            <mxPoint x="445.3499999999998" y="1977" as="targetPoint" />
          </mxGeometry>
        </mxCell>
        <mxCell id="RHDwDdP0duc58COCyPNJ-168" style="edgeStyle=orthogonalEdgeStyle;rounded=0;orthogonalLoop=1;jettySize=auto;html=1;curved=0;fontFamily=Helvetica;fontSize=12;fontColor=default;exitX=1;exitY=0;exitDx=0;exitDy=5;exitPerimeter=0;entryX=0;entryY=0;entryDx=0;entryDy=5;entryPerimeter=0;" parent="1" source="RHDwDdP0duc58COCyPNJ-166" target="RHDwDdP0duc58COCyPNJ-174" edge="1">
          <mxGeometry relative="1" as="geometry">
            <mxPoint x="320.35" y="1944.9302325581396" as="targetPoint" />
            <mxPoint x="170.35000000000002" y="1950" as="sourcePoint" />
          </mxGeometry>
        </mxCell>
        <mxCell id="RHDwDdP0duc58COCyPNJ-169" value="&lt;font style=&quot;font-size: 11px;&quot;&gt;GetUserInvetoryById(userSteamId)&lt;/font&gt;" style="edgeLabel;html=1;align=center;verticalAlign=middle;resizable=0;points=[];fontSize=12;fontFamily=Helvetica;fontColor=default;" parent="RHDwDdP0duc58COCyPNJ-168" vertex="1" connectable="0">
          <mxGeometry x="-0.2297" y="2" relative="1" as="geometry">
            <mxPoint x="27" y="-7" as="offset" />
          </mxGeometry>
        </mxCell>
        <mxCell id="RHDwDdP0duc58COCyPNJ-170" value="alt" style="shape=umlFrame;whiteSpace=wrap;html=1;pointerEvents=0;rounded=0;glass=0;fillStyle=auto;strokeColor=default;align=center;verticalAlign=middle;spacingLeft=0;spacingTop=0;fontFamily=Helvetica;fontSize=12;fontColor=default;fillColor=default;" parent="1" vertex="1">
          <mxGeometry x="80.35" y="2010" width="470" height="120" as="geometry" />
        </mxCell>
        <mxCell id="RHDwDdP0duc58COCyPNJ-171" value="" style="endArrow=none;dashed=1;html=1;dashPattern=1 3;strokeWidth=2;rounded=0;fontFamily=Helvetica;fontSize=12;fontColor=default;entryX=1.007;entryY=0.506;entryDx=0;entryDy=0;entryPerimeter=0;exitX=-0.005;exitY=0.511;exitDx=0;exitDy=0;exitPerimeter=0;" parent="1" source="RHDwDdP0duc58COCyPNJ-170" target="RHDwDdP0duc58COCyPNJ-170" edge="1">
          <mxGeometry width="50" height="50" relative="1" as="geometry">
            <mxPoint x="460.35" y="2220" as="sourcePoint" />
            <mxPoint x="640.35" y="2130" as="targetPoint" />
          </mxGeometry>
        </mxCell>
        <mxCell id="RHDwDdP0duc58COCyPNJ-174" value="" style="html=1;points=[[0,0,0,0,5],[0,1,0,0,-5],[1,0,0,0,5],[1,1,0,0,-5]];perimeter=orthogonalPerimeter;outlineConnect=0;targetShapes=umlLifeline;portConstraint=eastwest;newEdgeStyle={&quot;curved&quot;:0,&quot;rounded&quot;:0};rounded=0;glass=0;fillStyle=auto;strokeColor=#6c8ebf;align=center;verticalAlign=middle;spacingLeft=0;spacingTop=0;fontFamily=Helvetica;fontSize=12;fillColor=#dae8fc;" parent="1" vertex="1">
          <mxGeometry x="435.35" y="1940" width="10" height="1325" as="geometry" />
        </mxCell>
        <mxCell id="RHDwDdP0duc58COCyPNJ-175" value="&lt;font style=&quot;font-size: 11px;&quot;&gt;[Id = notValid]&lt;/font&gt;" style="text;html=1;strokeColor=none;fillColor=none;align=center;verticalAlign=middle;whiteSpace=wrap;rounded=0;fontSize=12;fontFamily=Helvetica;fontColor=default;" parent="1" vertex="1">
          <mxGeometry x="345.35" y="2007" width="90" height="30" as="geometry" />
        </mxCell>
        <mxCell id="RHDwDdP0duc58COCyPNJ-176" value="" style="html=1;points=[[0,0,0,0,5],[0,0.5,0,0,0],[0,1,0,0,-5],[1,0,0,0,5],[1,0.29,0,0,0],[1,0.5,0,0,0],[1,0.72,0,0,0],[1,1,0,0,-5]];perimeter=orthogonalPerimeter;outlineConnect=0;targetShapes=umlLifeline;portConstraint=eastwest;newEdgeStyle={&quot;curved&quot;:0,&quot;rounded&quot;:0};rounded=0;glass=0;fillStyle=auto;strokeColor=#6c8ebf;align=center;verticalAlign=middle;spacingLeft=0;spacingTop=0;fontFamily=Helvetica;fontSize=12;fillColor=#dae8fc;" parent="1" vertex="1">
          <mxGeometry x="675.35" y="2070" width="10" height="1165" as="geometry" />
        </mxCell>
        <mxCell id="RHDwDdP0duc58COCyPNJ-177" value="&lt;font style=&quot;font-size: 11px;&quot;&gt;GetUserInventoryById(userId)&lt;/font&gt;" style="html=1;verticalAlign=bottom;endArrow=block;curved=0;rounded=0;fontFamily=Helvetica;fontSize=12;fontColor=default;" parent="1" source="RHDwDdP0duc58COCyPNJ-174" edge="1">
          <mxGeometry width="80" relative="1" as="geometry">
            <mxPoint x="450.35" y="2110" as="sourcePoint" />
            <mxPoint x="680.35" y="2110" as="targetPoint" />
          </mxGeometry>
        </mxCell>
        <mxCell id="RHDwDdP0duc58COCyPNJ-178" value="&lt;font style=&quot;font-size: 11px;&quot;&gt;[Id = Valid]&lt;/font&gt;" style="text;html=1;strokeColor=none;fillColor=none;align=center;verticalAlign=middle;whiteSpace=wrap;rounded=0;fontSize=12;fontFamily=Helvetica;fontColor=default;" parent="1" vertex="1">
          <mxGeometry x="345.35" y="2070" width="90" height="30" as="geometry" />
        </mxCell>
        <mxCell id="RHDwDdP0duc58COCyPNJ-181" value=":Infrastructure" style="shape=umlLifeline;perimeter=lifelinePerimeter;whiteSpace=wrap;html=1;container=1;dropTarget=0;collapsible=0;recursiveResize=0;outlineConnect=0;portConstraint=eastwest;newEdgeStyle={&quot;curved&quot;:0,&quot;rounded&quot;:0};" parent="1" vertex="1">
          <mxGeometry x="880.35" y="1880" width="100" height="1535" as="geometry" />
        </mxCell>
        <mxCell id="RHDwDdP0duc58COCyPNJ-268" value="" style="html=1;points=[[0,0,0,0,5],[0,1,0,0,-5],[1,0,0,0,5],[1,1,0,0,-5]];perimeter=orthogonalPerimeter;outlineConnect=0;targetShapes=umlLifeline;portConstraint=eastwest;newEdgeStyle={&quot;curved&quot;:0,&quot;rounded&quot;:0};fillColor=#dae8fc;strokeColor=#6c8ebf;" parent="RHDwDdP0duc58COCyPNJ-181" vertex="1">
          <mxGeometry x="45" y="290" width="10" height="100" as="geometry" />
        </mxCell>
        <mxCell id="RHDwDdP0duc58COCyPNJ-269" value="" style="html=1;points=[[0,0,0,0,5],[0,1,0,0,-5],[1,0,0,0,5],[1,1,0,0,-5]];perimeter=orthogonalPerimeter;outlineConnect=0;targetShapes=umlLifeline;portConstraint=eastwest;newEdgeStyle={&quot;curved&quot;:0,&quot;rounded&quot;:0};fillColor=#dae8fc;strokeColor=#6c8ebf;" parent="RHDwDdP0duc58COCyPNJ-181" vertex="1">
          <mxGeometry x="45" y="430" width="10" height="100" as="geometry" />
        </mxCell>
        <mxCell id="RHDwDdP0duc58COCyPNJ-246" value="" style="html=1;points=[[0,0,0,0,5],[0,1,0,0,-5],[1,0,0,0,5],[1,1,0,0,-5]];perimeter=orthogonalPerimeter;outlineConnect=0;targetShapes=umlLifeline;portConstraint=eastwest;newEdgeStyle={&quot;curved&quot;:0,&quot;rounded&quot;:0};fillColor=#dae8fc;strokeColor=#6c8ebf;" parent="RHDwDdP0duc58COCyPNJ-181" vertex="1">
          <mxGeometry x="45" y="881" width="10" height="70" as="geometry" />
        </mxCell>
        <mxCell id="RHDwDdP0duc58COCyPNJ-182" value="" style="shape=umlLifeline;perimeter=lifelinePerimeter;whiteSpace=wrap;html=1;container=1;dropTarget=0;collapsible=0;recursiveResize=0;outlineConnect=0;portConstraint=eastwest;newEdgeStyle={&quot;curved&quot;:0,&quot;rounded&quot;:0};participant=umlActor;" parent="1" vertex="1">
          <mxGeometry x="1510" y="1880" width="20" height="1535" as="geometry" />
        </mxCell>
        <mxCell id="RHDwDdP0duc58COCyPNJ-202" value="" style="html=1;points=[[0,0,0,0,5],[0,1,0,0,-5],[1,0,0,0,5],[1,1,0,0,-5]];perimeter=orthogonalPerimeter;outlineConnect=0;targetShapes=umlLifeline;portConstraint=eastwest;newEdgeStyle={&quot;curved&quot;:0,&quot;rounded&quot;:0};rounded=0;glass=0;fillStyle=auto;strokeColor=#6c8ebf;align=center;verticalAlign=middle;spacingLeft=0;spacingTop=0;fontFamily=Helvetica;fontSize=12;fillColor=#dae8fc;" parent="RHDwDdP0duc58COCyPNJ-182" vertex="1">
          <mxGeometry x="5" y="450" width="10" height="50" as="geometry" />
        </mxCell>
        <mxCell id="RHDwDdP0duc58COCyPNJ-239" value="" style="html=1;points=[[0,0,0,0,5],[0,1,0,0,-5],[1,0,0,0,5],[1,1,0,0,-5]];perimeter=orthogonalPerimeter;outlineConnect=0;targetShapes=umlLifeline;portConstraint=eastwest;newEdgeStyle={&quot;curved&quot;:0,&quot;rounded&quot;:0};rounded=0;glass=0;fillStyle=auto;strokeColor=#6c8ebf;align=center;verticalAlign=middle;spacingLeft=0;spacingTop=0;fontFamily=Helvetica;fontSize=12;fillColor=#dae8fc;" parent="RHDwDdP0duc58COCyPNJ-182" vertex="1">
          <mxGeometry x="5" y="320" width="10" height="50" as="geometry" />
        </mxCell>
        <mxCell id="RHDwDdP0duc58COCyPNJ-184" value="Steam WebApi" style="text;html=1;strokeColor=none;fillColor=none;align=center;verticalAlign=middle;whiteSpace=wrap;rounded=0;fontSize=12;fontFamily=Helvetica;fontColor=default;" parent="1" vertex="1">
          <mxGeometry x="1475.3200000000002" y="1858" width="90" height="30" as="geometry" />
        </mxCell>
        <mxCell id="RHDwDdP0duc58COCyPNJ-186" style="edgeStyle=orthogonalEdgeStyle;rounded=0;orthogonalLoop=1;jettySize=auto;html=1;curved=0;exitX=1;exitY=0;exitDx=0;exitDy=5;exitPerimeter=0;entryX=0;entryY=0;entryDx=0;entryDy=5;entryPerimeter=0;fontFamily=Helvetica;fontSize=12;fontColor=default;" parent="1" edge="1">
          <mxGeometry relative="1" as="geometry">
            <mxPoint x="685.35" y="2172" as="sourcePoint" />
            <mxPoint x="925.35" y="2172" as="targetPoint" />
          </mxGeometry>
        </mxCell>
        <mxCell id="RHDwDdP0duc58COCyPNJ-187" value="&lt;font style=&quot;font-size: 11px;&quot;&gt;GetUserInfoSteam(userId)&lt;/font&gt;" style="edgeLabel;html=1;align=center;verticalAlign=middle;resizable=0;points=[];fontSize=12;fontFamily=Helvetica;fontColor=default;" parent="RHDwDdP0duc58COCyPNJ-186" vertex="1" connectable="0">
          <mxGeometry x="-0.275" y="-1" relative="1" as="geometry">
            <mxPoint x="37" y="-10" as="offset" />
          </mxGeometry>
        </mxCell>
        <mxCell id="RHDwDdP0duc58COCyPNJ-188" value="&lt;font style=&quot;font-size: 11px;&quot;&gt;GetUserInfoSteam(userId)&lt;/font&gt;" style="html=1;verticalAlign=bottom;endArrow=block;curved=0;rounded=0;entryX=0;entryY=0;entryDx=0;entryDy=5;fontFamily=Helvetica;fontSize=12;fontColor=default;" parent="1" edge="1">
          <mxGeometry x="-0.4319" relative="1" as="geometry">
            <mxPoint x="935.3499999999999" y="2207.0000000000005" as="sourcePoint" />
            <mxPoint x="1515.0000000000005" y="2207" as="targetPoint" />
            <mxPoint as="offset" />
          </mxGeometry>
        </mxCell>
        <mxCell id="RHDwDdP0duc58COCyPNJ-189" value="&lt;font style=&quot;font-size: 11px;&quot;&gt;UserInfoSteamResponse&lt;/font&gt;" style="html=1;verticalAlign=bottom;endArrow=open;dashed=1;endSize=8;curved=0;rounded=0;exitX=0;exitY=1;exitDx=0;exitDy=-5;fontFamily=Helvetica;fontSize=12;fontColor=default;" parent="1" edge="1">
          <mxGeometry x="0.4319" relative="1" as="geometry">
            <mxPoint x="935.3499999999999" y="2239.9999999999995" as="targetPoint" />
            <mxPoint x="1515.0000000000005" y="2240" as="sourcePoint" />
            <mxPoint as="offset" />
          </mxGeometry>
        </mxCell>
        <mxCell id="RHDwDdP0duc58COCyPNJ-190" value="&lt;font style=&quot;font-size: 11px;&quot;&gt;UserInfoSteamResponse&lt;/font&gt;" style="html=1;verticalAlign=bottom;endArrow=open;dashed=1;endSize=8;curved=0;rounded=0;exitX=0;exitY=1;exitDx=0;exitDy=-5;fontFamily=Helvetica;fontSize=12;fontColor=default;" parent="1" edge="1">
          <mxGeometry relative="1" as="geometry">
            <mxPoint x="685.35" y="2259" as="targetPoint" />
            <mxPoint x="925.35" y="2259" as="sourcePoint" />
          </mxGeometry>
        </mxCell>
        <mxCell id="RHDwDdP0duc58COCyPNJ-204" style="edgeStyle=orthogonalEdgeStyle;rounded=0;orthogonalLoop=1;jettySize=auto;html=1;curved=0;exitX=1;exitY=0;exitDx=0;exitDy=5;exitPerimeter=0;entryX=0;entryY=0;entryDx=0;entryDy=5;entryPerimeter=0;fontFamily=Helvetica;fontSize=12;fontColor=default;" parent="1" edge="1">
          <mxGeometry relative="1" as="geometry">
            <mxPoint x="685.35" y="2320" as="sourcePoint" />
            <mxPoint x="925.35" y="2320" as="targetPoint" />
          </mxGeometry>
        </mxCell>
        <mxCell id="RHDwDdP0duc58COCyPNJ-205" value="&lt;font style=&quot;font-size: 11px;&quot;&gt;GetUserInventoryItemsSteamByUserId(userId)&lt;/font&gt;" style="edgeLabel;html=1;align=center;verticalAlign=middle;resizable=0;points=[];fontSize=12;fontFamily=Helvetica;fontColor=default;" parent="RHDwDdP0duc58COCyPNJ-204" vertex="1" connectable="0">
          <mxGeometry x="-0.275" y="-1" relative="1" as="geometry">
            <mxPoint x="28" y="-11" as="offset" />
          </mxGeometry>
        </mxCell>
        <mxCell id="RHDwDdP0duc58COCyPNJ-208" value="&lt;font style=&quot;font-size: 11px;&quot;&gt;UserInventorySteamItemsNotDuplicated&lt;/font&gt;" style="html=1;verticalAlign=bottom;endArrow=open;dashed=1;endSize=8;curved=0;rounded=0;exitX=0;exitY=1;exitDx=0;exitDy=-5;fontFamily=Helvetica;fontSize=12;fontColor=default;" parent="1" edge="1">
          <mxGeometry relative="1" as="geometry">
            <mxPoint x="685.35" y="2391" as="targetPoint" />
            <mxPoint x="925.35" y="2391" as="sourcePoint" />
          </mxGeometry>
        </mxCell>
        <mxCell id="RHDwDdP0duc58COCyPNJ-240" value=":Repository" style="shape=umlLifeline;perimeter=lifelinePerimeter;whiteSpace=wrap;html=1;container=1;dropTarget=0;collapsible=0;recursiveResize=0;outlineConnect=0;portConstraint=eastwest;newEdgeStyle={&quot;curved&quot;:0,&quot;rounded&quot;:0};" parent="1" vertex="1">
          <mxGeometry x="1190" y="1880" width="100" height="1535" as="geometry" />
        </mxCell>
        <mxCell id="RHDwDdP0duc58COCyPNJ-243" value="" style="html=1;points=[[0,0,0,0,5],[0,0.5,0,0,0],[0,1,0,0,-5],[1,0,0,0,5],[1,0.29,0,0,0],[1,0.5,0,0,0],[1,0.72,0,0,0],[1,1,0,0,-5]];perimeter=orthogonalPerimeter;outlineConnect=0;targetShapes=umlLifeline;portConstraint=eastwest;newEdgeStyle={&quot;curved&quot;:0,&quot;rounded&quot;:0};rounded=0;glass=0;fillStyle=auto;strokeColor=#6c8ebf;align=center;verticalAlign=middle;spacingLeft=0;spacingTop=0;fontFamily=Helvetica;fontSize=12;fillColor=#dae8fc;" parent="RHDwDdP0duc58COCyPNJ-240" vertex="1">
          <mxGeometry x="45" y="589.5" width="10" height="101" as="geometry" />
        </mxCell>
        <mxCell id="RHDwDdP0duc58COCyPNJ-300" value="" style="html=1;points=[[0,0,0,0,5],[0,1,0,0,-5],[1,0,0,0,5],[1,1,0,0,-5]];perimeter=orthogonalPerimeter;outlineConnect=0;targetShapes=umlLifeline;portConstraint=eastwest;newEdgeStyle={&quot;curved&quot;:0,&quot;rounded&quot;:0};fillColor=#dae8fc;strokeColor=#6c8ebf;" parent="RHDwDdP0duc58COCyPNJ-240" vertex="1">
          <mxGeometry x="45" y="1161" width="10" height="69" as="geometry" />
        </mxCell>
        <mxCell id="RHDwDdP0duc58COCyPNJ-244" value="" style="html=1;points=[[0,0,0,0,5],[0,1,0,0,-5],[1,0,0,0,5],[1,1,0,0,-5]];perimeter=orthogonalPerimeter;outlineConnect=0;targetShapes=umlLifeline;portConstraint=eastwest;newEdgeStyle={&quot;curved&quot;:0,&quot;rounded&quot;:0};fillColor=#dae8fc;strokeColor=#6c8ebf;" parent="1" vertex="1">
          <mxGeometry x="1235" y="2911" width="10" height="60" as="geometry" />
        </mxCell>
        <mxCell id="RHDwDdP0duc58COCyPNJ-245" value="[foreach (item in notExistingItems)]" style="text;html=1;strokeColor=none;fillColor=none;align=center;verticalAlign=middle;whiteSpace=wrap;rounded=0;fontSize=12;fontFamily=Helvetica;fontColor=default;" parent="1" vertex="1">
          <mxGeometry x="679" y="2718" width="205" height="30" as="geometry" />
        </mxCell>
        <mxCell id="RHDwDdP0duc58COCyPNJ-249" style="edgeStyle=orthogonalEdgeStyle;rounded=0;orthogonalLoop=1;jettySize=auto;html=1;curved=0;exitX=1;exitY=0;exitDx=0;exitDy=5;exitPerimeter=0;entryX=0;entryY=0;entryDx=0;entryDy=5;entryPerimeter=0;" parent="1" target="RHDwDdP0duc58COCyPNJ-243" edge="1">
          <mxGeometry relative="1" as="geometry">
            <mxPoint x="686" y="2475" as="sourcePoint" />
          </mxGeometry>
        </mxCell>
        <mxCell id="RHDwDdP0duc58COCyPNJ-250" value="&lt;font style=&quot;font-size: 11px;&quot;&gt;GetSteamItemsByIdsDb(userInventoryItems)&lt;/font&gt;" style="edgeLabel;html=1;align=center;verticalAlign=middle;resizable=0;points=[];" parent="RHDwDdP0duc58COCyPNJ-249" vertex="1" connectable="0">
          <mxGeometry x="-0.0751" y="1" relative="1" as="geometry">
            <mxPoint x="5" y="-7" as="offset" />
          </mxGeometry>
        </mxCell>
        <mxCell id="RHDwDdP0duc58COCyPNJ-251" value="&amp;nbsp;GetSteamItemsByIdsAsync(&amp;lt;IEnumerable&amp;gt; itemIds)" style="html=1;verticalAlign=bottom;endArrow=block;curved=0;rounded=0;entryX=0;entryY=0;entryDx=0;entryDy=5;" parent="1" source="RHDwDdP0duc58COCyPNJ-243" target="RHDwDdP0duc58COCyPNJ-247" edge="1">
          <mxGeometry relative="1" as="geometry">
            <mxPoint x="1426" y="2496" as="sourcePoint" />
          </mxGeometry>
        </mxCell>
        <mxCell id="RHDwDdP0duc58COCyPNJ-252" value="SteamItemsWithHistoryExistingOnDB" style="html=1;verticalAlign=bottom;endArrow=open;dashed=1;endSize=8;curved=0;rounded=0;" parent="1" source="RHDwDdP0duc58COCyPNJ-247" edge="1">
          <mxGeometry relative="1" as="geometry">
            <mxPoint x="1245" y="2543" as="targetPoint" />
            <mxPoint x="1825" y="2542.999999999999" as="sourcePoint" />
          </mxGeometry>
        </mxCell>
        <mxCell id="RHDwDdP0duc58COCyPNJ-253" value="SteamItemsOnDb" style="html=1;verticalAlign=bottom;endArrow=open;dashed=1;endSize=8;curved=0;rounded=0;" parent="1" edge="1">
          <mxGeometry x="0.1095" relative="1" as="geometry">
            <mxPoint x="1234" y="2560" as="sourcePoint" />
            <mxPoint x="686" y="2560" as="targetPoint" />
            <mxPoint as="offset" />
          </mxGeometry>
        </mxCell>
        <mxCell id="RHDwDdP0duc58COCyPNJ-254" value="&lt;font style=&quot;font-size: 11px;&quot;&gt;GetNotExistingItemsInDb(steamItemsOnDb,&lt;br&gt;userInventoryItems)&lt;/font&gt;" style="html=1;align=left;spacingLeft=2;endArrow=block;rounded=0;edgeStyle=orthogonalEdgeStyle;curved=0;rounded=0;fontFamily=Helvetica;fontSize=12;fontColor=default;" parent="1" edge="1">
          <mxGeometry relative="1" as="geometry">
            <mxPoint x="685.9999999999998" y="2601" as="sourcePoint" />
            <Array as="points">
              <mxPoint x="701" y="2601" />
              <mxPoint x="701" y="2621" />
            </Array>
            <mxPoint x="685.9999999999998" y="2621" as="targetPoint" />
          </mxGeometry>
        </mxCell>
        <mxCell id="RHDwDdP0duc58COCyPNJ-255" value="opt" style="shape=umlFrame;whiteSpace=wrap;html=1;pointerEvents=0;" parent="1" vertex="1">
          <mxGeometry x="570" y="2681" width="1310" height="310" as="geometry" />
        </mxCell>
        <mxCell id="RHDwDdP0duc58COCyPNJ-256" value="[notExistingItems?.Any() == true)]" style="text;html=1;strokeColor=none;fillColor=none;align=center;verticalAlign=middle;whiteSpace=wrap;rounded=0;fontSize=12;fontFamily=Helvetica;fontColor=default;" parent="1" vertex="1">
          <mxGeometry x="681.5" y="2681" width="200" height="30" as="geometry" />
        </mxCell>
        <mxCell id="RHDwDdP0duc58COCyPNJ-257" value="loop" style="shape=umlFrame;whiteSpace=wrap;html=1;pointerEvents=0;" parent="1" vertex="1">
          <mxGeometry x="591" y="2721" width="1229" height="170" as="geometry" />
        </mxCell>
        <mxCell id="RHDwDdP0duc58COCyPNJ-258" value="GetHistoryItemSteam(itemName)" style="html=1;verticalAlign=bottom;endArrow=block;curved=0;rounded=0;entryX=0;entryY=0;entryDx=0;entryDy=5;" parent="1" target="RHDwDdP0duc58COCyPNJ-246" edge="1">
          <mxGeometry x="-0.0558" y="-1" relative="1" as="geometry">
            <mxPoint x="686" y="2766" as="sourcePoint" />
            <mxPoint as="offset" />
          </mxGeometry>
        </mxCell>
        <mxCell id="RHDwDdP0duc58COCyPNJ-259" value="SteamItemWithHistory" style="html=1;verticalAlign=bottom;endArrow=open;dashed=1;endSize=8;curved=0;rounded=0;exitX=0;exitY=1;exitDx=0;exitDy=-5;" parent="1" source="RHDwDdP0duc58COCyPNJ-246" edge="1">
          <mxGeometry x="0.0558" relative="1" as="geometry">
            <mxPoint x="686" y="2826" as="targetPoint" />
            <mxPoint as="offset" />
          </mxGeometry>
        </mxCell>
        <mxCell id="RHDwDdP0duc58COCyPNJ-260" value="" style="html=1;points=[[0,0,0,0,5],[0,1,0,0,-5],[1,0,0,0,5],[1,1,0,0,-5]];perimeter=orthogonalPerimeter;outlineConnect=0;targetShapes=umlLifeline;portConstraint=eastwest;newEdgeStyle={&quot;curved&quot;:0,&quot;rounded&quot;:0};fillColor=#dae8fc;strokeColor=#6c8ebf;" parent="1" vertex="1">
          <mxGeometry x="1515" y="2776" width="10" height="40" as="geometry" />
        </mxCell>
        <mxCell id="RHDwDdP0duc58COCyPNJ-261" value="GetHistoryItemSteam(itemName)" style="html=1;verticalAlign=bottom;endArrow=block;curved=0;rounded=0;entryX=0;entryY=0;entryDx=0;entryDy=5;" parent="1" source="RHDwDdP0duc58COCyPNJ-246" target="RHDwDdP0duc58COCyPNJ-260" edge="1">
          <mxGeometry x="0.0512" y="1" relative="1" as="geometry">
            <mxPoint x="1691" y="2781" as="sourcePoint" />
            <mxPoint as="offset" />
          </mxGeometry>
        </mxCell>
        <mxCell id="RHDwDdP0duc58COCyPNJ-262" value="UserInventoryHistorySteamResponse" style="html=1;verticalAlign=bottom;endArrow=open;dashed=1;endSize=8;curved=0;rounded=0;exitX=0;exitY=1;exitDx=0;exitDy=-5;" parent="1" source="RHDwDdP0duc58COCyPNJ-260" target="RHDwDdP0duc58COCyPNJ-246" edge="1">
          <mxGeometry x="-0.0512" y="-1" relative="1" as="geometry">
            <mxPoint x="1691" y="2811" as="targetPoint" />
            <mxPoint as="offset" />
          </mxGeometry>
        </mxCell>
        <mxCell id="RHDwDdP0duc58COCyPNJ-263" value="AddNewItem(&lt;span style=&quot;font-size: 11px; text-align: center;&quot;&gt;SteamItemWithHistory&lt;/span&gt;&lt;span style=&quot;font-size: 10px;&quot;&gt;)&lt;/span&gt;" style="html=1;align=left;spacingLeft=2;endArrow=block;rounded=0;edgeStyle=orthogonalEdgeStyle;curved=0;rounded=0;fontFamily=Helvetica;fontSize=12;fontColor=default;" parent="1" edge="1">
          <mxGeometry relative="1" as="geometry">
            <mxPoint x="685.9999999999998" y="2851.0299999999997" as="sourcePoint" />
            <Array as="points">
              <mxPoint x="701" y="2851.0299999999997" />
              <mxPoint x="701" y="2871.0299999999997" />
            </Array>
            <mxPoint x="685.9999999999998" y="2871.0299999999997" as="targetPoint" />
          </mxGeometry>
        </mxCell>
        <mxCell id="RHDwDdP0duc58COCyPNJ-264" value="AddMultipleSteamItems(newItems)" style="html=1;verticalAlign=bottom;endArrow=block;curved=0;rounded=0;entryX=0;entryY=0;entryDx=0;entryDy=5;" parent="1" target="RHDwDdP0duc58COCyPNJ-244" edge="1">
          <mxGeometry relative="1" as="geometry">
            <mxPoint x="686" y="2916" as="sourcePoint" />
          </mxGeometry>
        </mxCell>
        <mxCell id="RHDwDdP0duc58COCyPNJ-265" value="return" style="html=1;verticalAlign=bottom;endArrow=open;dashed=1;endSize=8;curved=0;rounded=0;exitX=0;exitY=1;exitDx=0;exitDy=-5;" parent="1" source="RHDwDdP0duc58COCyPNJ-244" edge="1">
          <mxGeometry x="0.1111" y="-1" relative="1" as="geometry">
            <mxPoint x="686" y="2966" as="targetPoint" />
            <mxPoint as="offset" />
          </mxGeometry>
        </mxCell>
        <mxCell id="RHDwDdP0duc58COCyPNJ-267" value="return" style="html=1;verticalAlign=bottom;endArrow=open;dashed=1;endSize=8;curved=0;rounded=0;exitX=0;exitY=1;exitDx=0;exitDy=-5;" parent="1" source="RHDwDdP0duc58COCyPNJ-248" target="RHDwDdP0duc58COCyPNJ-244" edge="1">
          <mxGeometry relative="1" as="geometry">
            <mxPoint x="1426" y="2951" as="targetPoint" />
          </mxGeometry>
        </mxCell>
        <mxCell id="RHDwDdP0duc58COCyPNJ-206" value="&lt;font style=&quot;font-size: 11px;&quot;&gt;GetUserInventoryItemsSteamByUserId(userId)&lt;/font&gt;" style="html=1;verticalAlign=bottom;endArrow=block;curved=0;rounded=0;entryX=0;entryY=0;entryDx=0;entryDy=5;fontFamily=Helvetica;fontSize=12;fontColor=default;" parent="1" target="RHDwDdP0duc58COCyPNJ-202" edge="1">
          <mxGeometry x="0.0512" relative="1" as="geometry">
            <mxPoint x="935.3499999999999" y="2335" as="sourcePoint" />
            <mxPoint as="offset" />
          </mxGeometry>
        </mxCell>
        <mxCell id="RHDwDdP0duc58COCyPNJ-207" value="&lt;font style=&quot;font-size: 11px;&quot;&gt;UserInventoryItemsSteamResponse&lt;/font&gt;" style="html=1;verticalAlign=bottom;endArrow=open;dashed=1;endSize=8;curved=0;rounded=0;exitX=0;exitY=1;exitDx=0;exitDy=-5;fontFamily=Helvetica;fontSize=12;fontColor=default;" parent="1" source="RHDwDdP0duc58COCyPNJ-202" edge="1">
          <mxGeometry x="-0.0512" relative="1" as="geometry">
            <mxPoint x="935.3499999999999" y="2375" as="targetPoint" />
            <mxPoint as="offset" />
          </mxGeometry>
        </mxCell>
        <mxCell id="RHDwDdP0duc58COCyPNJ-293" style="edgeStyle=orthogonalEdgeStyle;rounded=0;orthogonalLoop=1;jettySize=auto;html=1;curved=0;entryX=0;entryY=0;entryDx=0;entryDy=5;entryPerimeter=0;fontFamily=Helvetica;fontSize=12;fontColor=default;" parent="1" target="RHDwDdP0duc58COCyPNJ-300" edge="1">
          <mxGeometry relative="1" as="geometry">
            <mxPoint x="685.35" y="3045" as="sourcePoint" />
            <mxPoint x="964.3499999999999" y="3045" as="targetPoint" />
          </mxGeometry>
        </mxCell>
        <mxCell id="RHDwDdP0duc58COCyPNJ-294" value="&lt;font style=&quot;font-size: 11px;&quot;&gt;GetSteamItemsByIdsDb(userInventoryItems)&lt;/font&gt;" style="edgeLabel;html=1;align=center;verticalAlign=middle;resizable=0;points=[];fontSize=12;fontFamily=Helvetica;fontColor=default;" parent="RHDwDdP0duc58COCyPNJ-293" vertex="1" connectable="0">
          <mxGeometry x="-0.275" y="-1" relative="1" as="geometry">
            <mxPoint x="49" y="-12" as="offset" />
          </mxGeometry>
        </mxCell>
        <mxCell id="RHDwDdP0duc58COCyPNJ-296" value="&lt;font style=&quot;font-size: 11px;&quot;&gt;SteamItemsWithHistoryExistingOnDB&lt;/font&gt;" style="html=1;verticalAlign=bottom;endArrow=open;dashed=1;endSize=8;curved=0;rounded=0;fontFamily=Helvetica;fontSize=12;fontColor=default;" parent="1" edge="1">
          <mxGeometry relative="1" as="geometry">
            <mxPoint x="1245" y="3084.000000000001" as="targetPoint" />
            <mxPoint x="1752" y="3084" as="sourcePoint" />
          </mxGeometry>
        </mxCell>
        <mxCell id="RHDwDdP0duc58COCyPNJ-297" value="steamItemsOnDb" style="html=1;verticalAlign=bottom;endArrow=open;dashed=1;endSize=8;curved=0;rounded=0;exitX=0;exitY=1;exitDx=0;exitDy=-5;fontFamily=Helvetica;fontSize=12;fontColor=default;" parent="1" edge="1">
          <mxGeometry x="0.1091" relative="1" as="geometry">
            <mxPoint x="685" y="3095" as="targetPoint" />
            <mxPoint x="1235" y="3095" as="sourcePoint" />
            <mxPoint as="offset" />
          </mxGeometry>
        </mxCell>
        <mxCell id="RHDwDdP0duc58COCyPNJ-301" value="ProfitableItem(steamItemsOnDb.ToDictionary)" style="html=1;align=left;spacingLeft=2;endArrow=block;rounded=0;edgeStyle=orthogonalEdgeStyle;curved=0;rounded=0;fontFamily=Helvetica;fontSize=12;fontColor=default;" parent="1" edge="1">
          <mxGeometry relative="1" as="geometry">
            <mxPoint x="685.3499999999998" y="3125" as="sourcePoint" />
            <Array as="points">
              <mxPoint x="700.35" y="3125" />
              <mxPoint x="700.35" y="3145" />
            </Array>
            <mxPoint x="685.3499999999998" y="3145" as="targetPoint" />
          </mxGeometry>
        </mxCell>
        <mxCell id="RHDwDdP0duc58COCyPNJ-302" value="&lt;font style=&quot;font-size: 11px;&quot;&gt;&amp;nbsp;GetSteamItemsByIdsAsync(&amp;lt;IEnumerable&amp;gt; itemIds)&lt;/font&gt;" style="html=1;verticalAlign=bottom;endArrow=block;curved=0;rounded=0;fontFamily=Helvetica;fontSize=12;fontColor=default;" parent="1" edge="1">
          <mxGeometry relative="1" as="geometry">
            <mxPoint x="1245" y="3055" as="sourcePoint" />
            <mxPoint as="offset" />
            <mxPoint x="1752" y="3055" as="targetPoint" />
          </mxGeometry>
        </mxCell>
        <mxCell id="RHDwDdP0duc58COCyPNJ-304" value="CreateUserInventoryResponse()" style="html=1;align=left;spacingLeft=2;endArrow=block;rounded=0;edgeStyle=orthogonalEdgeStyle;curved=0;rounded=0;fontFamily=Helvetica;fontSize=12;fontColor=default;" parent="1" edge="1">
          <mxGeometry relative="1" as="geometry">
            <mxPoint x="685.3499999999999" y="3175" as="sourcePoint" />
            <Array as="points">
              <mxPoint x="700.3499999999999" y="3175" />
              <mxPoint x="700.3499999999999" y="3195" />
            </Array>
            <mxPoint x="685.3499999999999" y="3195" as="targetPoint" />
          </mxGeometry>
        </mxCell>
        <mxCell id="RHDwDdP0duc58COCyPNJ-305" value="UserInventoryResponse" style="html=1;verticalAlign=bottom;endArrow=open;dashed=1;endSize=8;curved=0;rounded=0;exitX=0;exitY=1;exitDx=0;exitDy=-5;exitPerimeter=0;" parent="1" edge="1">
          <mxGeometry relative="1" as="geometry">
            <mxPoint x="675.3499999999999" y="3215" as="sourcePoint" />
            <mxPoint x="450.3499999999999" y="3215" as="targetPoint" />
          </mxGeometry>
        </mxCell>
        <mxCell id="RHDwDdP0duc58COCyPNJ-306" value="GetUserInventoryApiResponse" style="html=1;verticalAlign=bottom;endArrow=open;dashed=1;endSize=8;curved=0;rounded=0;" parent="1" edge="1">
          <mxGeometry relative="1" as="geometry">
            <mxPoint x="435" y="3255" as="sourcePoint" />
            <mxPoint x="165" y="3255" as="targetPoint" />
          </mxGeometry>
        </mxCell>
        <mxCell id="RHDwDdP0duc58COCyPNJ-307" value="BadRequest(IdNotValid)" style="html=1;verticalAlign=bottom;endArrow=open;dashed=1;endSize=8;curved=0;rounded=0;" parent="1" target="RHDwDdP0duc58COCyPNJ-166" edge="1">
          <mxGeometry relative="1" as="geometry">
            <mxPoint x="435.35" y="2055" as="sourcePoint" />
            <mxPoint x="355.35" y="2055" as="targetPoint" />
          </mxGeometry>
        </mxCell>
        <mxCell id="RHDwDdP0duc58COCyPNJ-309" value="&lt;font style=&quot;font-size: 22px;&quot;&gt;&lt;b&gt;Obtener Inventario con&amp;nbsp;la información detallada flujo completo&lt;/b&gt;&lt;/font&gt;" style="text;html=1;strokeColor=none;fillColor=none;align=center;verticalAlign=middle;whiteSpace=wrap;rounded=0;fontSize=12;fontFamily=Helvetica;fontColor=default;" parent="1" vertex="1">
          <mxGeometry x="51.35" y="1810" width="668.65" height="30" as="geometry" />
        </mxCell>
        <mxCell id="_ZaJwgLXyBjZyZR1cbs3-1" value="" style="shape=umlLifeline;perimeter=lifelinePerimeter;whiteSpace=wrap;html=1;container=1;dropTarget=0;collapsible=0;recursiveResize=0;outlineConnect=0;portConstraint=eastwest;newEdgeStyle={&quot;curved&quot;:0,&quot;rounded&quot;:0};participant=umlActor;" parent="1" vertex="1">
          <mxGeometry x="2475" y="1264" width="20" height="480" as="geometry" />
        </mxCell>
        <mxCell id="_ZaJwgLXyBjZyZR1cbs3-17" value="" style="html=1;points=[[0,0,0,0,5],[0,1,0,0,-5],[1,0,0,0,5],[1,1,0,0,-5]];perimeter=orthogonalPerimeter;outlineConnect=0;targetShapes=umlLifeline;portConstraint=eastwest;newEdgeStyle={&quot;curved&quot;:0,&quot;rounded&quot;:0};" parent="_ZaJwgLXyBjZyZR1cbs3-1" vertex="1">
          <mxGeometry x="5" y="175" width="10" height="40" as="geometry" />
        </mxCell>
        <mxCell id="_ZaJwgLXyBjZyZR1cbs3-3" value="Steam WebApi" style="text;html=1;strokeColor=none;fillColor=none;align=center;verticalAlign=middle;whiteSpace=wrap;rounded=0;fontSize=12;fontFamily=Helvetica;fontColor=default;" parent="1" vertex="1">
          <mxGeometry x="2443" y="1242" width="90" height="30" as="geometry" />
        </mxCell>
        <mxCell id="_ZaJwgLXyBjZyZR1cbs3-4" value=":Domain" style="shape=umlLifeline;perimeter=lifelinePerimeter;whiteSpace=wrap;html=1;container=1;dropTarget=0;collapsible=0;recursiveResize=0;outlineConnect=0;portConstraint=eastwest;newEdgeStyle={&quot;curved&quot;:0,&quot;rounded&quot;:0};" parent="1" vertex="1">
          <mxGeometry x="1735.32" y="1264" width="100" height="480" as="geometry" />
        </mxCell>
        <mxCell id="_ZaJwgLXyBjZyZR1cbs3-5" value="" style="html=1;points=[[0,0,0,0,5],[0,1,0,0,-5],[1,0,0,0,5],[1,1,0,0,-5]];perimeter=orthogonalPerimeter;outlineConnect=0;targetShapes=umlLifeline;portConstraint=eastwest;newEdgeStyle={&quot;curved&quot;:0,&quot;rounded&quot;:0};rounded=0;glass=0;fillStyle=auto;strokeColor=default;align=center;verticalAlign=middle;spacingLeft=0;spacingTop=0;fontFamily=Helvetica;fontSize=12;fontColor=default;fillColor=default;" parent="_ZaJwgLXyBjZyZR1cbs3-4" vertex="1">
          <mxGeometry x="45" y="60" width="10" height="400" as="geometry" />
        </mxCell>
        <mxCell id="_ZaJwgLXyBjZyZR1cbs3-6" value=":Repository" style="shape=umlLifeline;perimeter=lifelinePerimeter;whiteSpace=wrap;html=1;container=1;dropTarget=0;collapsible=0;recursiveResize=0;outlineConnect=0;portConstraint=eastwest;newEdgeStyle={&quot;curved&quot;:0,&quot;rounded&quot;:0};" parent="1" vertex="1">
          <mxGeometry x="1962.32" y="1264" width="100" height="480" as="geometry" />
        </mxCell>
        <mxCell id="_ZaJwgLXyBjZyZR1cbs3-28" value="" style="html=1;points=[[0,0,0,0,5],[0,1,0,0,-5],[1,0,0,0,5],[1,1,0,0,-5]];perimeter=orthogonalPerimeter;outlineConnect=0;targetShapes=umlLifeline;portConstraint=eastwest;newEdgeStyle={&quot;curved&quot;:0,&quot;rounded&quot;:0};" parent="_ZaJwgLXyBjZyZR1cbs3-6" vertex="1">
          <mxGeometry x="45" y="320" width="10" height="60" as="geometry" />
        </mxCell>
        <mxCell id="_ZaJwgLXyBjZyZR1cbs3-30" value="return" style="html=1;verticalAlign=bottom;endArrow=open;dashed=1;endSize=8;curved=0;rounded=0;exitX=0;exitY=1;exitDx=0;exitDy=-5;" parent="_ZaJwgLXyBjZyZR1cbs3-6" source="_ZaJwgLXyBjZyZR1cbs3-28" edge="1">
          <mxGeometry relative="1" as="geometry">
            <mxPoint x="-171.31999999999994" y="374" as="targetPoint" />
          </mxGeometry>
        </mxCell>
        <mxCell id="_ZaJwgLXyBjZyZR1cbs3-7" value="" style="html=1;points=[[0,0,0,0,5],[0,1,0,0,-5],[1,0,0,0,5],[1,1,0,0,-5]];perimeter=orthogonalPerimeter;outlineConnect=0;targetShapes=umlLifeline;portConstraint=eastwest;newEdgeStyle={&quot;curved&quot;:0,&quot;rounded&quot;:0};rounded=0;glass=0;fillStyle=auto;strokeColor=default;align=center;verticalAlign=middle;spacingLeft=0;spacingTop=0;fontFamily=Helvetica;fontSize=12;fontColor=default;fillColor=default;" parent="1" vertex="1">
          <mxGeometry x="2007.32" y="1324" width="10" height="80" as="geometry" />
        </mxCell>
        <mxCell id="_ZaJwgLXyBjZyZR1cbs3-8" style="edgeStyle=orthogonalEdgeStyle;rounded=0;orthogonalLoop=1;jettySize=auto;html=1;curved=0;fontFamily=Helvetica;fontSize=12;fontColor=default;" parent="1" edge="1">
          <mxGeometry relative="1" as="geometry">
            <mxPoint x="1790" y="1334" as="sourcePoint" />
            <mxPoint x="2007" y="1334" as="targetPoint" />
          </mxGeometry>
        </mxCell>
        <mxCell id="_ZaJwgLXyBjZyZR1cbs3-9" value="&lt;font style=&quot;font-size: 11px;&quot;&gt;GetSteamItemsIds()&lt;/font&gt;" style="edgeLabel;html=1;align=center;verticalAlign=middle;resizable=0;points=[];fontSize=12;fontFamily=Helvetica;fontColor=default;" parent="_ZaJwgLXyBjZyZR1cbs3-8" vertex="1" connectable="0">
          <mxGeometry x="-0.275" y="-1" relative="1" as="geometry">
            <mxPoint x="36" y="-10" as="offset" />
          </mxGeometry>
        </mxCell>
        <mxCell id="_ZaJwgLXyBjZyZR1cbs3-10" value="&lt;font style=&quot;font-size: 11px;&quot;&gt;GetSteamItemsIds()&lt;/font&gt;" style="html=1;verticalAlign=bottom;endArrow=block;curved=0;rounded=0;fontFamily=Helvetica;fontSize=12;fontColor=default;" parent="1" source="_ZaJwgLXyBjZyZR1cbs3-7" target="_ZaJwgLXyBjZyZR1cbs3-14" edge="1">
          <mxGeometry relative="1" as="geometry">
            <mxPoint x="2085.3199999999997" y="1346" as="sourcePoint" />
            <mxPoint as="offset" />
            <mxPoint x="2320.32" y="1359.000000000001" as="targetPoint" />
            <Array as="points">
              <mxPoint x="2045" y="1354" />
            </Array>
          </mxGeometry>
        </mxCell>
        <mxCell id="_ZaJwgLXyBjZyZR1cbs3-11" value="&lt;font style=&quot;font-size: 11px;&quot;&gt;DBSteamItemsIds&lt;/font&gt;" style="html=1;verticalAlign=bottom;endArrow=open;dashed=1;endSize=8;curved=0;rounded=0;exitX=0;exitY=1;exitDx=0;exitDy=-5;fontFamily=Helvetica;fontSize=12;fontColor=default;" parent="1" edge="1">
          <mxGeometry relative="1" as="geometry">
            <mxPoint x="2017.32" y="1384.000000000001" as="targetPoint" />
            <mxPoint x="2320.32" y="1384.000000000001" as="sourcePoint" />
          </mxGeometry>
        </mxCell>
        <mxCell id="_ZaJwgLXyBjZyZR1cbs3-12" value="&lt;font style=&quot;font-size: 11px;&quot;&gt;ItemIds&lt;/font&gt;" style="html=1;verticalAlign=bottom;endArrow=open;dashed=1;endSize=8;curved=0;rounded=0;exitX=0;exitY=1;exitDx=0;exitDy=-5;fontFamily=Helvetica;fontSize=12;fontColor=default;" parent="1" edge="1">
          <mxGeometry relative="1" as="geometry">
            <mxPoint x="1790" y="1394" as="targetPoint" />
            <mxPoint x="2007.32" y="1393.77" as="sourcePoint" />
          </mxGeometry>
        </mxCell>
        <mxCell id="_ZaJwgLXyBjZyZR1cbs3-13" value="MongoDB" style="shape=umlLifeline;perimeter=lifelinePerimeter;whiteSpace=wrap;html=1;container=1;dropTarget=0;collapsible=0;recursiveResize=0;outlineConnect=0;portConstraint=eastwest;newEdgeStyle={&quot;curved&quot;:0,&quot;rounded&quot;:0};" parent="1" vertex="1">
          <mxGeometry x="2275.32" y="1264" width="100" height="480" as="geometry" />
        </mxCell>
        <mxCell id="_ZaJwgLXyBjZyZR1cbs3-31" value="" style="html=1;points=[[0,0,0,0,5],[0,1,0,0,-5],[1,0,0,0,5],[1,1,0,0,-5]];perimeter=orthogonalPerimeter;outlineConnect=0;targetShapes=umlLifeline;portConstraint=eastwest;newEdgeStyle={&quot;curved&quot;:0,&quot;rounded&quot;:0};" parent="_ZaJwgLXyBjZyZR1cbs3-13" vertex="1">
          <mxGeometry x="45" y="326" width="10" height="44" as="geometry" />
        </mxCell>
        <mxCell id="_ZaJwgLXyBjZyZR1cbs3-32" value="AddHistoryToExistingItem(itemId,itemHistory)" style="html=1;verticalAlign=bottom;endArrow=block;curved=0;rounded=0;" parent="_ZaJwgLXyBjZyZR1cbs3-13" edge="1">
          <mxGeometry relative="1" as="geometry">
            <mxPoint x="-258.32000000000016" y="340" as="sourcePoint" />
            <mxPoint x="44.679999999999836" y="340" as="targetPoint" />
          </mxGeometry>
        </mxCell>
        <mxCell id="_ZaJwgLXyBjZyZR1cbs3-33" value="return" style="html=1;verticalAlign=bottom;endArrow=open;dashed=1;endSize=8;curved=0;rounded=0;exitX=0;exitY=1;exitDx=0;exitDy=-5;" parent="_ZaJwgLXyBjZyZR1cbs3-13" source="_ZaJwgLXyBjZyZR1cbs3-31" edge="1">
          <mxGeometry relative="1" as="geometry">
            <mxPoint x="-257.32000000000016" y="365" as="targetPoint" />
          </mxGeometry>
        </mxCell>
        <mxCell id="_ZaJwgLXyBjZyZR1cbs3-14" value="" style="html=1;points=[[0,0,0,0,5],[0,1,0,0,-5],[1,0,0,0,5],[1,1,0,0,-5]];perimeter=orthogonalPerimeter;outlineConnect=0;targetShapes=umlLifeline;portConstraint=eastwest;newEdgeStyle={&quot;curved&quot;:0,&quot;rounded&quot;:0};rounded=0;glass=0;fillStyle=auto;strokeColor=default;align=center;verticalAlign=middle;spacingLeft=0;spacingTop=0;fontFamily=Helvetica;fontSize=12;fontColor=default;fillColor=default;" parent="1" vertex="1">
          <mxGeometry x="2320.32" y="1344" width="10" height="50" as="geometry" />
        </mxCell>
        <mxCell id="_ZaJwgLXyBjZyZR1cbs3-18" value="GetAllItemsSteam()" style="html=1;verticalAlign=bottom;endArrow=block;curved=0;rounded=0;" parent="1" edge="1">
          <mxGeometry relative="1" as="geometry">
            <mxPoint x="1790" y="1434" as="sourcePoint" />
            <mxPoint x="2160" y="1434" as="targetPoint" />
          </mxGeometry>
        </mxCell>
        <mxCell id="_ZaJwgLXyBjZyZR1cbs3-19" value="SteamDailyItemsResponse" style="html=1;verticalAlign=bottom;endArrow=open;dashed=1;endSize=8;curved=0;rounded=0;exitX=0;exitY=1;exitDx=0;exitDy=-5;" parent="1" source="_ZaJwgLXyBjZyZR1cbs3-17" edge="1">
          <mxGeometry relative="1" as="geometry">
            <mxPoint x="2170" y="1474" as="targetPoint" />
          </mxGeometry>
        </mxCell>
        <mxCell id="_ZaJwgLXyBjZyZR1cbs3-22" value="GetAllItemsSteam()" style="html=1;verticalAlign=bottom;endArrow=block;curved=0;rounded=0;entryX=0;entryY=0;entryDx=0;entryDy=5;entryPerimeter=0;" parent="1" target="_ZaJwgLXyBjZyZR1cbs3-17" edge="1">
          <mxGeometry width="80" relative="1" as="geometry">
            <mxPoint x="2170" y="1444" as="sourcePoint" />
            <mxPoint x="2249" y="1444" as="targetPoint" />
          </mxGeometry>
        </mxCell>
        <mxCell id="_ZaJwgLXyBjZyZR1cbs3-23" value="AllSteamItems" style="html=1;verticalAlign=bottom;endArrow=open;dashed=1;endSize=8;curved=0;rounded=0;" parent="1" source="_ZaJwgLXyBjZyZR1cbs3-20" edge="1">
          <mxGeometry relative="1" as="geometry">
            <mxPoint x="1790" y="1484" as="targetPoint" />
            <mxPoint x="2100" y="1484" as="sourcePoint" />
          </mxGeometry>
        </mxCell>
        <mxCell id="_ZaJwgLXyBjZyZR1cbs3-24" value="loop" style="shape=umlFrame;whiteSpace=wrap;html=1;pointerEvents=0;" parent="1" vertex="1">
          <mxGeometry x="1705" y="1504" width="840" height="200" as="geometry" />
        </mxCell>
        <mxCell id="_ZaJwgLXyBjZyZR1cbs3-25" value="[foreach (item in allSteamItems)]" style="text;html=1;strokeColor=none;fillColor=none;align=center;verticalAlign=middle;whiteSpace=wrap;rounded=0;fontSize=12;fontFamily=Helvetica;fontColor=default;" parent="1" vertex="1">
          <mxGeometry x="1795" y="1504" width="180" height="30" as="geometry" />
        </mxCell>
        <mxCell id="_ZaJwgLXyBjZyZR1cbs3-26" value="[itemIds.Contains(item.Id)]" style="text;html=1;strokeColor=none;fillColor=none;align=center;verticalAlign=middle;whiteSpace=wrap;rounded=0;fontSize=12;fontFamily=Helvetica;fontColor=default;" parent="1" vertex="1">
          <mxGeometry x="1796" y="1544" width="150" height="30" as="geometry" />
        </mxCell>
        <mxCell id="_ZaJwgLXyBjZyZR1cbs3-27" value="alt" style="shape=umlFrame;whiteSpace=wrap;html=1;pointerEvents=0;" parent="1" vertex="1">
          <mxGeometry x="1715" y="1544" width="810" height="130" as="geometry" />
        </mxCell>
        <mxCell id="_ZaJwgLXyBjZyZR1cbs3-29" value="&lt;font style=&quot;font-size: 10px;&quot;&gt;AddHistoryToExistingItem(itemId,itemHistory)&lt;/font&gt;" style="html=1;verticalAlign=bottom;endArrow=block;curved=0;rounded=0;" parent="1" target="_ZaJwgLXyBjZyZR1cbs3-28" edge="1">
          <mxGeometry x="-0.0337" relative="1" as="geometry">
            <mxPoint x="1790" y="1594" as="sourcePoint" />
            <mxPoint as="offset" />
          </mxGeometry>
        </mxCell>
        <mxCell id="_ZaJwgLXyBjZyZR1cbs3-35" value="UpdateOneAsync()" style="html=1;align=left;spacingLeft=2;endArrow=block;rounded=0;edgeStyle=orthogonalEdgeStyle;curved=0;rounded=0;fontFamily=Helvetica;fontSize=12;fontColor=default;" parent="1" edge="1">
          <mxGeometry x="-0.0038" relative="1" as="geometry">
            <mxPoint x="2330.32" y="1599" as="sourcePoint" />
            <Array as="points">
              <mxPoint x="2330" y="1604" />
              <mxPoint x="2345" y="1604" />
              <mxPoint x="2345" y="1619" />
            </Array>
            <mxPoint x="2330.32" y="1619" as="targetPoint" />
            <mxPoint as="offset" />
          </mxGeometry>
        </mxCell>
        <mxCell id="_ZaJwgLXyBjZyZR1cbs3-36" value="&lt;font style=&quot;font-size: 11px;&quot;&gt;Select()&lt;/font&gt;" style="html=1;align=left;spacingLeft=2;endArrow=block;rounded=0;edgeStyle=orthogonalEdgeStyle;curved=0;rounded=0;fontFamily=Helvetica;fontSize=12;fontColor=default;" parent="1" edge="1">
          <mxGeometry x="-0.0038" relative="1" as="geometry">
            <mxPoint x="2330.3300000000004" y="1353.99" as="sourcePoint" />
            <Array as="points">
              <mxPoint x="2330.01" y="1358.99" />
              <mxPoint x="2345.01" y="1358.99" />
              <mxPoint x="2345.01" y="1373.99" />
            </Array>
            <mxPoint x="2330.3300000000004" y="1373.99" as="targetPoint" />
            <mxPoint as="offset" />
          </mxGeometry>
        </mxCell>
        <mxCell id="_ZaJwgLXyBjZyZR1cbs3-37" value="&lt;font style=&quot;font-size: 11px;&quot;&gt;Where()&lt;/font&gt;" style="html=1;align=left;spacingLeft=2;endArrow=block;rounded=0;edgeStyle=orthogonalEdgeStyle;curved=0;rounded=0;fontFamily=Helvetica;fontSize=12;fontColor=default;" parent="1" edge="1">
          <mxGeometry x="-0.0038" relative="1" as="geometry">
            <mxPoint x="2195.0200000000004" y="655" as="sourcePoint" />
            <Array as="points">
              <mxPoint x="2194.7000000000003" y="660" />
              <mxPoint x="2209.7000000000003" y="660" />
              <mxPoint x="2209.7000000000003" y="675" />
            </Array>
            <mxPoint x="2195.0200000000004" y="675" as="targetPoint" />
            <mxPoint as="offset" />
          </mxGeometry>
        </mxCell>
        <mxCell id="_ZaJwgLXyBjZyZR1cbs3-38" value="&lt;font style=&quot;font-size: 11px;&quot;&gt;Where()&lt;/font&gt;" style="html=1;align=left;spacingLeft=2;endArrow=block;rounded=0;edgeStyle=orthogonalEdgeStyle;curved=0;rounded=0;fontFamily=Helvetica;fontSize=12;fontColor=default;" parent="1" edge="1">
          <mxGeometry x="-0.0038" relative="1" as="geometry">
            <mxPoint x="985.0200000000004" y="700" as="sourcePoint" />
            <Array as="points">
              <mxPoint x="984.7000000000003" y="705" />
              <mxPoint x="999.7000000000003" y="705" />
              <mxPoint x="999.7000000000003" y="720" />
            </Array>
            <mxPoint x="985.0200000000004" y="720" as="targetPoint" />
            <mxPoint as="offset" />
          </mxGeometry>
        </mxCell>
        <mxCell id="_ZaJwgLXyBjZyZR1cbs3-39" value="&lt;font style=&quot;font-size: 11px;&quot;&gt;InsertManyAsync()&lt;/font&gt;" style="html=1;align=left;spacingLeft=2;endArrow=block;rounded=0;edgeStyle=orthogonalEdgeStyle;curved=0;rounded=0;fontFamily=Helvetica;fontSize=12;fontColor=default;" parent="1" edge="1">
          <mxGeometry x="-0.0038" relative="1" as="geometry">
            <mxPoint x="985.0200000000004" y="1115" as="sourcePoint" />
            <Array as="points">
              <mxPoint x="984.7000000000003" y="1120" />
              <mxPoint x="999.7000000000003" y="1120" />
              <mxPoint x="999.7000000000003" y="1135" />
            </Array>
            <mxPoint x="985.0200000000004" y="1135" as="targetPoint" />
            <mxPoint as="offset" />
          </mxGeometry>
        </mxCell>
        <mxCell id="_ZaJwgLXyBjZyZR1cbs3-41" value="&lt;font style=&quot;font-size: 11px;&quot;&gt;Where()&lt;/font&gt;" style="html=1;align=left;spacingLeft=2;endArrow=block;rounded=0;edgeStyle=orthogonalEdgeStyle;curved=0;rounded=0;fontFamily=Helvetica;fontSize=12;fontColor=default;" parent="1" edge="1">
          <mxGeometry x="-0.0038" relative="1" as="geometry">
            <mxPoint x="1762" y="2515" as="sourcePoint" />
            <Array as="points">
              <mxPoint x="1762.9700000000003" y="2515" />
              <mxPoint x="1777.9700000000003" y="2515" />
              <mxPoint x="1777.9700000000003" y="2530" />
            </Array>
            <mxPoint x="1763.2900000000004" y="2530" as="targetPoint" />
            <mxPoint as="offset" />
          </mxGeometry>
        </mxCell>
        <mxCell id="_ZaJwgLXyBjZyZR1cbs3-42" value="&lt;font style=&quot;font-size: 11px;&quot;&gt;Where()&lt;/font&gt;" style="html=1;align=left;spacingLeft=2;endArrow=block;rounded=0;edgeStyle=orthogonalEdgeStyle;curved=0;rounded=0;fontFamily=Helvetica;fontSize=12;fontColor=default;" parent="1" edge="1">
          <mxGeometry x="-0.0038" relative="1" as="geometry">
            <mxPoint x="1762" y="3061" as="sourcePoint" />
            <Array as="points">
              <mxPoint x="1762.9700000000003" y="3061" />
              <mxPoint x="1777.9700000000003" y="3061" />
              <mxPoint x="1777.9700000000003" y="3076" />
            </Array>
            <mxPoint x="1763.2900000000004" y="3076" as="targetPoint" />
            <mxPoint as="offset" />
          </mxGeometry>
        </mxCell>
        <mxCell id="_ZaJwgLXyBjZyZR1cbs3-43" value="&lt;font style=&quot;font-size: 11px;&quot;&gt;InsertManyAsync()&lt;/font&gt;" style="html=1;align=left;spacingLeft=2;endArrow=block;rounded=0;edgeStyle=orthogonalEdgeStyle;curved=0;rounded=0;fontFamily=Helvetica;fontSize=12;fontColor=default;" parent="1" target="RHDwDdP0duc58COCyPNJ-248" edge="1">
          <mxGeometry x="-0.0038" relative="1" as="geometry">
            <mxPoint x="1762" y="2933.5" as="sourcePoint" />
            <Array as="points">
              <mxPoint x="1778" y="2933" />
              <mxPoint x="1778" y="2949" />
            </Array>
            <mxPoint x="1763.2900000000004" y="2948.5" as="targetPoint" />
            <mxPoint as="offset" />
          </mxGeometry>
        </mxCell>
        <mxCell id="_ZaJwgLXyBjZyZR1cbs3-44" value="" style="shape=umlLifeline;perimeter=lifelinePerimeter;whiteSpace=wrap;html=1;container=1;dropTarget=0;collapsible=0;recursiveResize=0;outlineConnect=0;portConstraint=eastwest;newEdgeStyle={&quot;curved&quot;:0,&quot;rounded&quot;:0};participant=umlActor;" parent="1" vertex="1">
          <mxGeometry x="1602" y="1264" width="20" height="480" as="geometry" />
        </mxCell>
        <mxCell id="_ZaJwgLXyBjZyZR1cbs3-48" value="" style="html=1;points=[[0,0,0,0,5],[0,1,0,0,-5],[1,0,0,0,5],[1,1,0,0,-5]];perimeter=orthogonalPerimeter;outlineConnect=0;targetShapes=umlLifeline;portConstraint=eastwest;newEdgeStyle={&quot;curved&quot;:0,&quot;rounded&quot;:0};" parent="_ZaJwgLXyBjZyZR1cbs3-44" vertex="1">
          <mxGeometry x="5" y="51" width="10.22" height="415" as="geometry" />
        </mxCell>
        <mxCell id="_ZaJwgLXyBjZyZR1cbs3-45" value="Timer" style="text;html=1;strokeColor=none;fillColor=default;align=center;verticalAlign=middle;whiteSpace=wrap;rounded=0;fontSize=12;fontFamily=Helvetica;fontColor=default;" parent="1" vertex="1">
          <mxGeometry x="1595" y="1304" width="34" height="11" as="geometry" />
        </mxCell>
        <mxCell id="_ZaJwgLXyBjZyZR1cbs3-46" style="edgeStyle=orthogonalEdgeStyle;rounded=0;orthogonalLoop=1;jettySize=auto;html=1;curved=0;fontFamily=Helvetica;fontSize=12;fontColor=default;" parent="1" edge="1">
          <mxGeometry relative="1" as="geometry">
            <mxPoint x="1617" y="1344" as="sourcePoint" />
            <mxPoint x="1779" y="1344" as="targetPoint" />
          </mxGeometry>
        </mxCell>
        <mxCell id="_ZaJwgLXyBjZyZR1cbs3-47" value="&lt;font style=&quot;font-size: 9px;&quot;&gt;DailyUpdateDataBaseHistory()&lt;/font&gt;" style="edgeLabel;html=1;align=center;verticalAlign=middle;resizable=0;points=[];fontSize=12;fontFamily=Helvetica;fontColor=default;" parent="_ZaJwgLXyBjZyZR1cbs3-46" vertex="1" connectable="0">
          <mxGeometry x="-0.275" y="-1" relative="1" as="geometry">
            <mxPoint x="16" y="-10" as="offset" />
          </mxGeometry>
        </mxCell>
        <mxCell id="_ZaJwgLXyBjZyZR1cbs3-49" value="return" style="html=1;verticalAlign=bottom;endArrow=open;dashed=1;endSize=8;curved=0;rounded=0;" parent="1" edge="1">
          <mxGeometry x="0.1656" y="-1" relative="1" as="geometry">
            <mxPoint x="1617" y="1720" as="targetPoint" />
            <mxPoint x="1780" y="1720" as="sourcePoint" />
            <mxPoint as="offset" />
          </mxGeometry>
        </mxCell>
        <mxCell id="_ZaJwgLXyBjZyZR1cbs3-50" value="&lt;font style=&quot;font-size: 22px;&quot;&gt;&lt;b&gt;Actualizar base de datos con la información histórica del día&lt;/b&gt;&lt;/font&gt;" style="text;html=1;strokeColor=none;fillColor=none;align=center;verticalAlign=middle;whiteSpace=wrap;rounded=0;fontSize=12;fontFamily=Helvetica;fontColor=default;" parent="1" vertex="1">
          <mxGeometry x="1600" y="1200" width="650" height="30" as="geometry" />
        </mxCell>
        <mxCell id="nV1pjYJrL1ItLYX2Vhe7-1" value="SteamItems" style="swimlane;fontStyle=0;childLayout=stackLayout;horizontal=1;startSize=26;horizontalStack=0;resizeParent=1;resizeParentMax=0;resizeLast=0;collapsible=1;marginBottom=0;align=center;fontSize=14;" vertex="1" parent="1">
          <mxGeometry x="2840" y="1920" width="160" height="150" as="geometry">
            <mxRectangle x="2640" y="2240" width="120" height="30" as="alternateBounds" />
          </mxGeometry>
        </mxCell>
        <mxCell id="nV1pjYJrL1ItLYX2Vhe7-2" value="_id" style="text;strokeColor=none;fillColor=none;spacingLeft=4;spacingRight=4;overflow=hidden;rotatable=0;points=[[0,0.5],[1,0.5]];portConstraint=eastwest;fontSize=12;whiteSpace=wrap;html=1;" vertex="1" parent="nV1pjYJrL1ItLYX2Vhe7-1">
          <mxGeometry y="26" width="160" height="30" as="geometry" />
        </mxCell>
        <mxCell id="nV1pjYJrL1ItLYX2Vhe7-6" value="ItemHashName" style="text;strokeColor=none;fillColor=none;spacingLeft=4;spacingRight=4;overflow=hidden;rotatable=0;points=[[0,0.5],[1,0.5]];portConstraint=eastwest;fontSize=12;whiteSpace=wrap;html=1;" vertex="1" parent="nV1pjYJrL1ItLYX2Vhe7-1">
          <mxGeometry y="56" width="160" height="30" as="geometry" />
        </mxCell>
        <mxCell id="nV1pjYJrL1ItLYX2Vhe7-7" value="Image" style="text;strokeColor=none;fillColor=none;spacingLeft=4;spacingRight=4;overflow=hidden;rotatable=0;points=[[0,0.5],[1,0.5]];portConstraint=eastwest;fontSize=12;whiteSpace=wrap;html=1;" vertex="1" parent="nV1pjYJrL1ItLYX2Vhe7-1">
          <mxGeometry y="86" width="160" height="30" as="geometry" />
        </mxCell>
        <mxCell id="nV1pjYJrL1ItLYX2Vhe7-3" value="History" style="text;strokeColor=none;fillColor=none;spacingLeft=4;spacingRight=4;overflow=hidden;rotatable=0;points=[[0,0.5],[1,0.5]];portConstraint=eastwest;fontSize=12;whiteSpace=wrap;html=1;" vertex="1" parent="nV1pjYJrL1ItLYX2Vhe7-1">
          <mxGeometry y="116" width="160" height="34" as="geometry" />
        </mxCell>
        <mxCell id="nV1pjYJrL1ItLYX2Vhe7-8" value="History" style="swimlane;fontStyle=0;childLayout=stackLayout;horizontal=1;startSize=26;horizontalStack=0;resizeParent=1;resizeParentMax=0;resizeLast=0;collapsible=1;marginBottom=0;align=center;fontSize=14;" vertex="1" parent="1">
          <mxGeometry x="2865" y="2151" width="110" height="146" as="geometry" />
        </mxCell>
        <mxCell id="nV1pjYJrL1ItLYX2Vhe7-9" value="Date" style="text;strokeColor=none;fillColor=none;spacingLeft=4;spacingRight=4;overflow=hidden;rotatable=0;points=[[0,0.5],[1,0.5]];portConstraint=eastwest;fontSize=12;whiteSpace=wrap;html=1;" vertex="1" parent="nV1pjYJrL1ItLYX2Vhe7-8">
          <mxGeometry y="26" width="110" height="30" as="geometry" />
        </mxCell>
        <mxCell id="nV1pjYJrL1ItLYX2Vhe7-10" value="Average" style="text;strokeColor=none;fillColor=none;spacingLeft=4;spacingRight=4;overflow=hidden;rotatable=0;points=[[0,0.5],[1,0.5]];portConstraint=eastwest;fontSize=12;whiteSpace=wrap;html=1;" vertex="1" parent="nV1pjYJrL1ItLYX2Vhe7-8">
          <mxGeometry y="56" width="110" height="30" as="geometry" />
        </mxCell>
        <mxCell id="nV1pjYJrL1ItLYX2Vhe7-12" value="ItemsSold" style="text;strokeColor=none;fillColor=none;spacingLeft=4;spacingRight=4;overflow=hidden;rotatable=0;points=[[0,0.5],[1,0.5]];portConstraint=eastwest;fontSize=12;whiteSpace=wrap;html=1;" vertex="1" parent="nV1pjYJrL1ItLYX2Vhe7-8">
          <mxGeometry y="86" width="110" height="30" as="geometry" />
        </mxCell>
        <mxCell id="nV1pjYJrL1ItLYX2Vhe7-11" value="LastPrice" style="text;strokeColor=none;fillColor=none;spacingLeft=4;spacingRight=4;overflow=hidden;rotatable=0;points=[[0,0.5],[1,0.5]];portConstraint=eastwest;fontSize=12;whiteSpace=wrap;html=1;" vertex="1" parent="nV1pjYJrL1ItLYX2Vhe7-8">
          <mxGeometry y="116" width="110" height="30" as="geometry" />
        </mxCell>
        <mxCell id="nV1pjYJrL1ItLYX2Vhe7-13" value="" style="endArrow=none;html=1;rounded=0;exitX=0.5;exitY=0;exitDx=0;exitDy=0;" edge="1" parent="1" source="nV1pjYJrL1ItLYX2Vhe7-8" target="nV1pjYJrL1ItLYX2Vhe7-3">
          <mxGeometry relative="1" as="geometry">
            <mxPoint x="2820" y="2111" as="sourcePoint" />
            <mxPoint x="2919.5199999999995" y="2109.5580000000004" as="targetPoint" />
          </mxGeometry>
        </mxCell>
        <mxCell id="nV1pjYJrL1ItLYX2Vhe7-14" value="1" style="resizable=0;html=1;whiteSpace=wrap;align=right;verticalAlign=bottom;" connectable="0" vertex="1" parent="nV1pjYJrL1ItLYX2Vhe7-13">
          <mxGeometry x="1" relative="1" as="geometry">
            <mxPoint y="21" as="offset" />
          </mxGeometry>
        </mxCell>
        <mxCell id="nV1pjYJrL1ItLYX2Vhe7-15" value="*" style="resizable=0;html=1;whiteSpace=wrap;align=right;verticalAlign=bottom;" connectable="0" vertex="1" parent="1">
          <mxGeometry x="2920.002255875275" y="2151.002766631551" as="geometry" />
        </mxCell>
        <mxCell id="nV1pjYJrL1ItLYX2Vhe7-17" value="&lt;span style=&quot;font-size: 22px;&quot;&gt;&lt;b&gt;Diagrama MongoDB&amp;nbsp;&lt;/b&gt;&lt;/span&gt;" style="text;html=1;strokeColor=none;fillColor=none;align=center;verticalAlign=middle;whiteSpace=wrap;rounded=0;fontSize=12;fontFamily=Helvetica;fontColor=default;" vertex="1" parent="1">
          <mxGeometry x="2795.68" y="1858" width="248.65" height="30" as="geometry" />
        </mxCell>
      </root>
    </mxGraphModel>
  </diagram>
</mxfile>
